<svg width="603" height="420" viewBox="0 0 603 420" fill="none" xmlns="http://www.w3.org/2000/svg">
<path d="M548.987 102.054C484.87 12.7881 349.424 -23.4221 216.218 15.5771C145.796 36.1948 77.8959 77.5054 44.2463 157.496C-15.9059 300.488 110.391 346.156 192.976 360.711C232.909 367.749 270.52 379.572 304.889 395.668C366.721 424.626 476.169 450.286 558.701 329.661C618.519 242.232 591.696 161.514 548.987 102.054Z" fill="#EDFCE9"/>
<path d="M142.239 71.308C142.904 72.9472 143.353 74.6658 143.575 76.4206C145.085 77.0523 147.372 77.1684 148.883 77.8001C148.141 76.7322 147.644 75.5132 147.428 74.2306C147.311 72.9399 147.926 71.4843 149.151 71.0632C149.942 70.7918 151.026 70.8619 151.356 70.0946C151.666 69.3757 150.967 68.6021 151.001 67.8202C151.063 66.4194 153.055 66.2249 154.434 66.4786L177.657 70.752C178.047 70.7934 178.423 70.9251 178.754 71.1368C179.684 71.8418 179.241 73.2859 179.321 74.4502C179.44 76.1761 180.861 77.494 181.579 79.0679C182.297 80.6418 181.619 83.1811 179.9 82.9854C178.611 82.8386 177.991 81.2372 176.782 80.7691C175.527 80.2835 174.09 81.2616 173.584 82.5087C173.079 83.7558 173.249 85.1609 173.428 86.4947C171.405 85.4069 169.342 84.4052 167.238 83.4898C165.88 82.8259 164.423 82.3841 162.924 82.1812C162.362 82.1975 161.804 82.0719 161.303 81.8162C160.081 80.987 160.893 79.0622 161.904 77.9849C162.915 76.9077 164.13 75.4133 163.362 74.1514C160.16 73.9451 156.953 74.4491 153.968 75.6276C150.984 76.806 148.298 78.6296 146.101 80.9679C145.848 81.1953 145.67 81.4939 145.591 81.8244C145.45 82.8441 147.005 83.3292 147.2 84.3401C147.222 84.7105 147.103 85.0757 146.867 85.3623C146.632 85.6489 146.296 85.8357 145.928 85.8852C145.187 85.9568 144.439 85.8332 143.76 85.5266L137.672 83.3839C137.184 83.1519 136.633 83.0841 136.103 83.1906C135.274 83.4577 134.974 84.4517 134.403 85.1093C133.324 86.3519 131.426 86.2738 129.795 86.4956C127.93 86.7756 126.176 87.5596 124.724 88.7632C123.272 89.9667 122.176 91.5441 121.555 93.3249C121.22 94.1296 121.183 95.0279 121.453 95.8571C121.794 96.5193 122.312 97.0737 122.949 97.4583C124.222 98.3604 125.589 99.1221 127.026 99.7303C128.312 100.167 129.538 100.763 130.675 101.505C131.746 102.369 132.493 103.571 132.793 104.914C133.093 106.257 132.929 107.662 132.327 108.9C133.552 110.103 135.718 109.225 136.739 107.844C137.76 106.464 138.19 104.699 139.3 103.389C141.346 100.977 145.249 100.606 146.936 97.9306C148.487 95.4721 147.463 92.2304 148.059 89.3853C148.078 89.168 148.147 88.9581 148.259 88.7712C148.372 88.5844 148.525 88.4256 148.708 88.3068C149.266 88.0453 149.874 88.4917 150.45 88.7109C152.792 89.6023 154.949 86.6806 157.453 86.601C160.182 86.5142 161.715 89.5738 163.637 91.5133C164.678 92.5442 165.951 93.3106 167.349 93.7481C168.747 94.1856 170.229 94.2815 171.672 94.0277C171.094 95.3735 170.936 96.8627 171.22 98.2997C171.503 99.7367 172.215 101.054 173.261 102.08C174.147 102.916 175.301 103.598 175.678 104.756C176.539 107.4 172.717 109.801 173.384 112.501C173.953 114.807 177.264 115.281 178.366 117.385C179.549 119.645 177.314 122.474 174.797 122.881C172.279 123.289 169.807 122.098 167.534 120.942C167.249 119.999 167.228 118.995 167.474 118.041C167.72 117.087 168.223 116.219 168.929 115.532C169.575 114.92 170.381 114.466 170.9 113.743C171.418 113.02 171.511 111.858 170.78 111.351C170.332 111.109 169.817 111.022 169.315 111.102C164.96 111.343 160.644 112.048 156.439 113.205C155.039 113.591 153.307 114.937 154.182 116.097C155.731 115.43 157.727 116.97 157.474 118.638C157.372 119.316 156.976 119.975 157.121 120.646C157.317 121.559 158.354 121.958 159.129 122.479C159.904 123 160.44 124.293 159.631 124.76C159.053 124.9 158.987 124.701 158.42 124.88C147.524 128.323 137.833 134.7 128.3 141C127.703 141.326 127.2 141.799 126.838 142.375C126.599 143.027 126.468 143.713 126.45 144.407C125.933 147.952 122.192 149.929 118.926 151.4C115.66 152.871 111.958 155.02 111.673 158.591C111.524 160.462 112.399 162.243 112.812 164.074C113.224 165.906 112.961 168.203 111.305 169.086C109.387 170.11 107.045 168.483 106.003 166.575C104.961 164.668 104.569 162.399 103.191 160.718C102.231 159.575 100.914 158.788 99.4526 158.483C98.6125 158.274 97.734 158.272 96.8932 158.479C96.0524 158.685 95.2746 159.094 94.6274 159.669C93.4012 160.884 93.118 163.06 94.264 164.351C89.4135 163.825 83.9001 163.501 80.306 166.801C78.1005 168.826 77.0922 171.897 76.9577 174.888C76.8231 177.879 77.4689 180.844 78.1109 183.768C78.5894 185.948 79.4244 188.517 81.5865 189.069C83.1136 189.459 84.7282 188.589 85.7309 187.372C86.7335 186.156 87.2739 184.637 87.9095 183.195C89.0173 180.681 90.6932 178.13 93.3189 177.322C95.9446 176.514 99.4028 178.573 98.9537 181.283C98.6682 183.006 97.0761 184.14 95.7651 185.294C94.454 186.448 93.2373 188.239 93.965 189.827C96.7432 189.641 99.7404 190.09 101.812 191.95C102.835 192.956 103.499 194.27 103.701 195.69C103.903 197.111 103.631 198.558 102.929 199.808C102.58 200.431 102.362 201.119 102.288 201.829C102.214 202.54 102.286 203.258 102.499 203.939C102.712 204.621 103.062 205.251 103.528 205.793C103.993 206.335 104.564 206.775 105.206 207.089C106.384 207.595 107.707 207.633 108.942 207.978C110.884 208.529 112.539 209.809 113.56 211.551C113.729 212.296 114.02 213.952 113.824 214.621C114.057 213.15 112.628 211.883 111.175 211.552C109.723 211.222 108.206 211.503 106.72 211.399C101.991 211.064 98.4206 206.953 96.2139 202.757C95.3329 201.082 94.4769 199.234 92.8253 198.309C90.2625 196.875 86.6208 198.161 84.4007 196.239C83.7675 195.69 83.3302 194.929 82.6429 194.45C80.2392 192.775 76.6625 195.466 74.0904 194.063C73.1807 193.567 72.5797 192.632 71.6874 192.105C70.549 191.433 69.1181 191.521 67.8813 191.054C65.9468 190.324 64.7857 188.388 63.7735 186.585L51.5636 164.836C50.9834 163.922 50.557 162.92 50.3013 161.868C50.1002 160.783 50.2392 159.567 49.5921 158.673C48.8107 157.593 47.2703 157.487 45.9374 157.482C47.9839 163.9 50.2856 170.222 52.8425 176.446C50.8194 176.139 49.5286 174.181 48.5299 172.395C44.7268 165.593 41.3551 158.558 38.4346 151.333C36.8509 147.414 37.1962 143.488 37.1877 139.261C37.1827 136.815 39.0038 134.746 40.9719 133.293C42.9399 131.84 45.1949 130.708 46.7805 128.845C49.8834 125.2 49.3259 119.033 45.6196 116.003C45.9678 114.318 46.7865 112.767 47.9806 111.529L51.4758 115.966C52.7055 115.823 53.0178 114.021 52.3301 112.991C51.6424 111.962 50.4298 111.442 49.4398 110.699C48.4499 109.955 47.6106 108.65 48.1392 107.53C48.3183 107.151 48.634 106.85 48.8201 106.475C49.5332 105.034 48.1293 103.507 46.9644 102.4C45.7996 101.292 44.7617 99.3105 45.9758 98.2576C44.9438 98.7781 44.0439 97.2606 44.095 96.1059C44.1462 94.9512 44.396 93.5282 43.4464 92.8694C42.9486 92.5975 42.3779 92.4891 41.815 92.5598C34.52 92.75 27.28 93.8812 20.2746 95.9251C21.3161 97.2792 20.1072 99.4043 18.4682 99.8857C16.8292 100.367 15.0891 99.7451 13.5058 99.1038C11.9226 98.4624 10.2244 97.7797 8.55551 98.1439C6.00805 98.6997 4.53162 101.441 2.14933 102.501C3.48543 100.545 2.29754 97.4116 0 96.8327L6.80053 92.4638C5.58404 91.1487 4.50571 89.7122 3.58248 88.1769C8.52911 85.9067 13.7586 84.3121 19.1304 83.4362C19.1379 82.4073 18.8683 81.3955 18.3498 80.5068C17.8314 79.6181 17.0833 78.8854 16.1841 78.3855C19.5095 79.312 22.9729 79.6412 26.4133 79.3578C25.165 77.914 25.6665 75.5524 26.9841 74.1716C28.3017 72.7907 30.1931 72.1473 32.0065 71.5519C34.8323 70.5304 37.7435 69.7626 40.7055 69.2576C54.0292 67.393 67.5129 76.1976 80.5555 72.8976C82.6905 72.3574 84.7555 71.4983 86.9424 71.2375C95.5828 70.2067 103.955 78.5801 112.182 75.7463C112.97 74.3017 110.893 72.9717 109.256 72.8064C107.619 72.641 105.448 72.2918 105.269 70.6564C105.131 69.3975 106.347 67.8535 105.369 67.0496C105.016 66.8203 104.6 66.7092 104.18 66.7324L99.715 66.5171C101.181 64.6025 103.215 63.2005 105.526 62.5116C107.837 61.8227 110.307 61.8822 112.582 62.6815C116.136 64.0168 119.124 67.1871 122.922 67.1576C123.41 67.1048 123.904 67.1445 124.377 67.2745C125.971 67.8932 125.384 70.3324 124.281 71.639C122.607 73.6158 120.41 75.0819 117.941 75.8699L126.322 77.1723C127.568 77.4564 128.86 77.4724 130.113 77.2193C131.34 76.8773 132.471 75.8435 132.498 74.5699C132.522 73.4373 131.754 72.1153 132.534 71.2943C132.92 70.9725 133.4 70.7859 133.902 70.763L139.895 69.8459C140.28 69.7551 140.68 69.7596 141.063 69.8589C141.349 70.0056 141.601 70.2101 141.804 70.4596C142.006 70.7091 142.154 70.998 142.239 71.308Z" fill="#76BB63"/>
<path d="M114.202 222.006C114.537 219.475 113.291 216.713 113.69 214.192L113.426 211.122C114.915 211.098 116.358 210.603 117.548 209.707C118.738 208.811 119.613 207.562 120.048 206.138C120.184 205.35 120.427 204.585 120.771 203.864C121.931 201.969 124.719 202.239 126.882 202.747L139.066 205.612C142.061 206.316 145.259 207.137 147.289 209.449C148.549 210.884 149.284 212.824 150.888 213.86C152.472 214.883 154.498 214.769 156.36 215.068C158.814 215.511 161.074 216.695 162.835 218.462C164.596 220.228 165.773 222.492 166.208 224.948C166.456 226.528 166.508 228.39 167.812 229.317C169.292 230.369 171.336 229.486 173.141 229.674C176.342 230.009 178.313 233.62 181.447 234.351C183.227 234.766 185.233 234.205 186.833 235.088C188.595 236.06 189.151 238.397 190.764 239.6C192.524 240.912 195.15 240.598 196.832 242.009C198.585 243.48 198.574 246.134 198.415 248.418C198.267 250.545 198.111 252.708 197.348 254.698C195.401 259.77 189.634 263.636 190.328 269.023C190.561 270.825 191.526 272.436 192.129 274.149C192.732 275.863 192.906 277.951 191.729 279.334C191.21 279.876 190.602 280.324 189.932 280.66L178.693 287.115C177.955 287.539 177.157 288.035 176.902 288.847C176.776 289.438 176.8 290.052 176.97 290.632C177.412 292.885 177.594 295.262 176.879 297.444C176.163 299.626 174.101 302.337 171.837 302.72C174.051 303.964 175.694 306.021 176.417 308.456C171.417 309.034 166.379 309.205 161.352 308.967C161.376 310.721 162.139 312.367 162.59 314.062C163.042 315.757 163.12 317.747 161.978 319.078C160.547 320.745 157.975 320.61 155.796 320.334C156.529 321.545 156.099 323.187 155.166 324.252C154.156 325.251 152.947 326.027 151.618 326.528C152.331 326.956 152.897 327.591 153.238 328.35C153.58 329.108 153.681 329.952 153.529 330.769C153.228 332.231 152.149 333.385 151.402 334.676C150.656 335.968 150.299 337.767 151.338 338.838C152.003 339.525 153.083 339.722 153.673 340.475C154.704 341.789 153.62 343.626 153.11 345.217C152.011 348.648 153.995 352.462 156.892 354.603C159.789 356.745 163.417 357.588 166.931 358.38C166.967 359.804 165.634 360.964 164.236 361.241C162.839 361.518 161.405 361.133 160.033 360.751L152.866 358.756C148.867 357.643 144.891 355.805 143.09 352.065C143.469 347.738 139.503 344.355 138.059 340.258C136.967 337.16 137.351 333.676 136.167 330.612C135.504 328.894 134.382 327.401 133.443 325.817C131.624 322.697 130.5 319.222 130.146 315.629C129.792 312.035 130.217 308.408 131.393 304.993C132.647 301.43 134.747 298.004 134.658 294.227C134.533 288.914 130.141 284.614 129.129 279.397C128.716 277.266 128.839 274.916 127.602 273.132C126.654 271.766 125.082 271.004 123.617 270.216C118.811 267.632 114.141 263.623 113.403 258.216C113.065 255.739 113.575 253.088 112.537 250.814C111.554 248.663 109.409 247.338 107.612 245.802C105.814 244.265 104.177 241.992 104.791 239.708C105.114 238.502 106.025 237.515 106.32 236.302C106.561 235.313 106.368 234.27 106.491 233.259C107.053 228.642 113.593 226.616 114.202 222.006Z" fill="#76BB63"/>
<path d="M124.773 55.5117C123.301 55.0245 121.714 55.0018 120.228 55.4467C118.743 55.8917 117.43 56.7827 116.468 57.999C116.083 58.5051 115.761 59.2029 116.082 59.751C116.544 60.5368 117.72 60.2264 118.586 59.9454C119.86 59.4902 121.247 59.4571 122.541 59.851C123.355 60.1305 124.084 60.6244 124.901 60.8932C125.299 61.0597 125.735 61.1147 126.162 61.0523C126.588 60.9899 126.99 60.8126 127.324 60.5392C127.885 59.967 127.92 59.0774 127.921 58.276C127.96 58.0079 127.939 57.7344 127.858 57.4756C127.778 57.2168 127.641 56.9792 127.457 56.7801C127.13 56.5905 126.762 56.4818 126.385 56.4628C125.539 56.3063 124.774 55.8594 124.222 55.1994" fill="#76BB63"/>
<path d="M133.192 53.1689C132.862 53.1509 132.534 53.218 132.238 53.3638C131.942 53.5095 131.688 53.729 131.501 54.001C131.315 54.2731 131.201 54.5886 131.172 54.9173C131.142 55.2459 131.198 55.5766 131.333 55.8776C132.345 56.1536 133.402 56.2225 134.441 56.0803C134.959 55.9998 135.442 55.7677 135.829 55.4133C136.215 55.0588 136.488 54.5978 136.613 54.0885C135.39 54.3111 134.127 54.07 133.072 53.4121" fill="#76BB63"/>
<path d="M161.438 49.2538C158.684 49.8394 156.008 50.7482 153.468 51.9613C154.665 52.4218 155.684 53.2548 156.372 54.3377C157.061 55.4206 157.383 56.696 157.292 57.9761C157.185 58.4675 157.197 58.9776 157.329 59.4632C157.621 60.1728 158.469 60.4391 159.215 60.6212C160.555 61.029 161.954 61.2075 163.353 61.1494C164.053 61.1128 164.733 60.9022 165.331 60.5367C165.929 60.1713 166.427 59.6624 166.779 59.0563C166.981 58.481 167.219 57.9187 167.491 57.3725C169.278 54.6502 174.588 57.9419 176.508 55.3107C177.184 54.3839 177.122 52.9887 178.003 52.2543C178.459 51.9343 178.987 51.7327 179.54 51.6676C183.4 50.9008 187.298 50.3455 191.218 50.0044C193.076 49.8427 195.497 49.1758 195.512 47.3115C188.516 45.9375 181.262 46.9133 174.878 50.0873C172.578 51.2394 169.535 53.6629 167.32 52.1355C166.49 51.5636 166.531 50.0237 165.39 49.3806C164.222 48.7232 162.677 48.9906 161.438 49.2538Z" fill="#76BB63"/>
<path d="M184.317 53.5326L187.601 54.1636C186.996 54.1368 186.393 54.2393 185.831 54.4641C185.27 54.6889 184.762 55.031 184.343 55.4675C183.924 55.9039 183.603 56.4247 183.401 56.9952C183.199 57.5656 183.121 58.1725 183.172 58.7754C186.248 59.8028 189.601 58.8031 192.84 58.9396C196.08 59.0762 199.849 61.3903 199.296 64.5852C199.129 65.5513 198.571 66.5167 198.861 67.4531C199.064 68.1095 199.643 68.5752 199.97 69.1798C200.651 70.4394 200.107 72.0328 199.247 73.1779C198.387 74.323 197.232 75.2367 196.477 76.4536C194.6 79.4803 195.666 83.3931 196.785 86.7745C197.108 88.0521 197.705 89.2443 198.534 90.2685C200.191 92.0297 202.89 92.1829 205.307 92.2181C207.067 92.2438 209.083 92.1569 210.195 90.7936C211.648 89.0138 210.632 86.2368 211.589 84.1479C212.457 82.2508 214.671 81.4369 216.676 80.8597C220.349 79.8022 224.093 78.9031 227.565 77.3058C231.878 75.3223 235.908 72.2312 240.647 71.9759C241.977 71.9042 243.34 72.0612 244.621 71.6968C245.902 71.3325 247.118 70.2251 247.021 68.897C246.939 67.7622 245.978 66.9289 245.228 66.0735C244.478 65.218 243.889 63.9026 244.578 62.9975L257.002 60.677C256.121 58.2771 255.435 55.1163 257.459 53.5541C258.189 52.9905 259.166 52.7652 259.788 52.0838C260.848 50.9225 260.315 48.9219 259.092 47.9342C257.869 46.9465 256.215 46.7172 254.648 46.5871C249.201 46.1347 243.722 46.4336 238.264 46.7328C227.595 47.3176 216.926 47.9025 206.257 48.4873C204.109 48.605 201.629 48.4252 199.659 49.1579C197.992 49.7782 196.806 50.9169 194.899 51.317C191.378 52.0556 187.503 51.5558 184.317 53.5326Z" fill="#76BB63"/>
<path d="M243.15 79.4918C242.815 79.4389 242.473 79.5165 242.194 79.7086C242.009 79.9118 241.9 80.1718 241.883 80.4457C241.671 81.6547 241.923 82.8991 242.59 83.9298C242.929 84.4355 243.398 84.841 243.947 85.1043C244.496 85.3676 245.106 85.4791 245.713 85.4272C247.192 85.2386 248.281 83.977 249.641 83.3614C251.736 82.4135 260.634 80.9358 254.479 77.6103C252.358 76.4643 250.987 77.4759 249.315 78.2307C247.413 79.2038 245.281 79.6398 243.15 79.4918Z" fill="#76BB63"/>
<path d="M297.064 51.655C296.345 51.9486 295.744 52.472 295.354 53.1434C295.174 53.4843 295.132 53.8813 295.237 54.2521C295.342 54.6229 295.585 54.9393 295.917 55.1357C296.185 55.233 296.47 55.2782 296.755 55.2687L299.678 55.356C300.919 55.3931 302.47 55.6575 302.804 56.8539C303.051 57.7423 302.497 58.8839 303.166 59.5188C303.453 59.7411 303.798 59.8758 304.16 59.9065C305.123 60.1538 306.128 60.1863 307.105 60.0016C309.231 59.4312 308.114 58.1334 308.784 56.9778C309.808 55.2096 309.631 56.28 311.437 55.2666C312.77 54.5182 314.493 53.1607 313.38 51.2532C311.445 47.9363 299.92 50.23 297.064 51.655Z" fill="#76BB63"/>
<path d="M354.746 49.9868L353.049 50.2133C349.222 50.724 345.374 51.2393 341.688 52.3885C343.283 53.0193 344.957 53.43 346.663 53.6094C347.603 53.6554 348.536 53.788 349.451 54.0056C351.078 54.4902 352.719 55.7416 354.292 55.1006C355.267 54.7031 355.585 53.6877 356.393 53.1496C356.951 52.778 359.066 52.1766 359.303 51.8016C361.215 48.7697 356.216 49.7907 354.746 49.9868Z" fill="#76BB63"/>
<path d="M362.198 57.7009C359.931 58.9684 357.828 60.5086 355.935 62.2871C355.138 63.0366 354.324 63.9688 354.396 65.0608C354.492 66.512 356.038 67.3538 357.377 67.9209L362.802 70.2177C363.46 69.2901 362.858 68.0097 362.178 67.0981C361.498 66.1866 360.689 65.1319 360.99 64.035C361.333 62.7832 362.859 62.3567 364.139 62.141C366.224 61.7897 371.85 61.8178 371.174 58.4572C370.377 54.4973 364.291 56.5308 362.198 57.7009Z" fill="#76BB63"/>
<path d="M361.107 281.794C360.59 283.29 360.541 285.051 361.435 286.356C362.437 287.821 364.443 288.367 366.179 287.996C367.907 287.536 369.448 286.545 370.584 285.164C371.623 284.006 372.477 282.696 373.117 281.278C374.011 279.07 374.642 276.763 374.995 274.407L376.68 265.563C377.056 263.587 377.042 257.527 373.409 259.502C372.416 260.041 370.119 264.299 369.079 265.507C367.204 267.683 366.956 269.795 365.969 272.432C364.733 275.734 362.249 278.487 361.107 281.794Z" fill="#76BB63"/>
<path d="M552.975 327.05C551.786 326.586 550.633 326.036 549.523 325.406C548.41 328.465 547.819 331.689 547.773 334.943L555.907 330.341C557.131 329.648 558.518 328.686 558.491 327.281C558.502 327.107 558.466 326.934 558.387 326.779C558.308 326.624 558.189 326.493 558.041 326.4C557.861 326.328 557.664 326.305 557.471 326.333C556.265 326.434 555.165 327.027 554.028 327.44C552.89 327.853 551.559 328.071 550.516 327.458" fill="#76BB63"/>
<path d="M578.085 327.689C577.192 327.932 576.32 328.245 575.476 328.625C573.61 329.575 572.34 331.379 570.66 332.63C569.053 333.827 567.118 334.484 565.218 335.123C564.66 335.617 564.916 336.612 565.523 337.046C566.175 337.417 566.923 337.585 567.671 337.529C569.645 337.572 571.724 337.591 573.452 336.638C574.426 336.006 575.338 335.283 576.174 334.478C578.195 332.792 580.622 331.679 583.024 330.604C583.899 330.274 584.707 329.79 585.412 329.176C586.922 327.689 587.028 325.394 584.851 324.888C583.092 324.479 579.76 327.148 578.085 327.689Z" fill="#76BB63"/>
<path d="M597.043 315.306C597.141 314.282 597.005 313.25 596.645 312.287C596.286 311.324 595.712 310.455 594.967 309.746C594.945 311.794 594.883 313.975 593.731 315.668C592.911 316.875 591.624 317.69 590.725 318.839C589.826 319.988 589.427 321.81 590.482 322.818C591.156 323.331 591.977 323.614 592.824 323.625C594.923 323.872 597.352 324.009 598.824 322.493C599.628 321.665 600.019 320.439 600.999 319.831C601.364 319.677 601.69 319.444 601.953 319.148C602.358 318.505 601.715 317.657 600.991 317.425C600.267 317.193 599.47 317.302 598.742 317.082C598.015 316.862 597.347 316.044 597.721 315.382" fill="#76BB63"/>
<path d="M581.146 242.325C580.045 242.593 578.905 242.66 577.78 242.523C575.911 242.18 574.456 240.772 572.948 239.617C569.361 236.886 565.002 235.363 560.495 235.266C556.395 235.188 552.258 236.299 548.231 235.524C548.494 236.987 549.746 238.085 551.082 238.737C552.418 239.389 553.892 239.717 555.235 240.356C557.384 241.39 559.089 243.164 560.037 245.353C560.469 246.362 560.741 247.46 561.396 248.341C562.735 250.142 565.272 250.537 567.511 250.39C570.43 250.198 573.479 249.359 576.195 250.446C578.273 251.278 579.76 253.097 581.494 254.511C583.229 255.925 585.673 256.974 587.665 255.954C585.595 255.284 583.795 253.97 582.525 252.204C581.255 250.439 580.583 248.313 580.607 246.139C582.561 246.318 588.188 246.249 587.885 242.929C587.628 240.116 582.824 242.021 581.146 242.325Z" fill="#76BB63"/>
<path d="M555.588 265.215C555.935 263.313 557.833 261.633 557.242 259.791C556.833 258.518 555.356 257.889 554.019 257.858C552.682 257.826 551.369 258.224 550.032 258.262C549.162 258.216 548.289 258.228 547.421 258.299C544.767 258.735 543.131 261.517 540.63 262.506C539.11 263.107 537.401 262.992 535.82 263.408C532.229 264.352 529.958 267.744 527.448 270.48C523.393 274.88 518.11 277.96 512.284 279.323C510.243 279.796 508.048 280.098 506.426 281.424C504.277 283.18 503.748 286.189 503.27 288.923C501.949 296.471 499.931 303.881 497.241 311.056L505.766 312.144C507.386 312.351 509.066 312.554 510.628 312.074C511.762 311.646 512.837 311.073 513.826 310.37C517.622 308.013 521.872 306.479 526.299 305.868C528.531 305.562 530.872 305.505 532.967 306.335C535.061 307.165 536.859 309.047 537.034 311.293C537.94 311.011 538.906 310.981 539.828 311.205C540.75 311.429 541.593 311.9 542.269 312.566C543.604 313.926 544.478 315.671 544.768 317.555C544.992 318.721 545.217 320.119 546.299 320.608C547.182 321.007 548.195 320.577 549.161 320.5C552.438 320.238 555.158 324.059 558.38 323.401C561.835 322.696 562.683 317.521 566.053 316.485C567.989 315.89 570.705 316.613 571.632 314.813C572.449 313.226 570.818 311.394 570.987 309.617C571.194 307.428 573.775 306.5 575.765 305.566C582.625 302.347 585.88 293.114 582.556 286.304C580.586 282.269 576.711 279.093 575.995 274.66C575.444 271.25 576.789 267.273 574.615 264.589C573.508 263.223 571.636 262.469 570.977 260.84C570.563 259.814 570.73 258.651 570.507 257.567C570.284 256.484 569.339 255.35 568.269 255.631C565.163 256.446 564.172 266.041 562.509 268.372C559.981 271.915 554.793 269.581 555.588 265.215Z" fill="#76BB63"/>
<path d="M498.184 245.951C497.122 245.653 495.963 245.36 494.946 245.786C493.929 246.211 493.336 247.704 494.152 248.445C500.537 248.196 506.961 247.949 513.292 248.816C520.586 249.815 527.805 252.29 535.131 251.562C530.946 250.327 526.692 249.34 522.391 248.606L515.219 247.236C513.295 246.833 511.351 246.532 509.395 246.336C505.303 245.998 502.206 247.079 498.184 245.951Z" fill="#76BB63"/>
<path d="M504.576 223.712C504.046 223.667 503.389 223.629 503.115 224.085C502.853 224.521 503.153 225.096 503.012 225.584C502.819 226.251 501.946 226.422 501.257 226.331C500.569 226.24 499.825 226.023 499.215 226.354C498.906 226.566 498.673 226.872 498.552 227.226C498.432 227.581 498.429 227.965 498.545 228.321C498.795 229.028 499.198 229.671 499.726 230.203C500.628 231.339 501.656 232.37 502.789 233.275C504.984 234.895 507.957 235.676 509.339 238.027C509.534 238.483 509.834 238.887 510.214 239.205C510.877 239.625 511.743 239.305 512.457 238.979L514.961 237.835C515.412 237.672 515.815 237.398 516.132 237.038C516.704 236.262 516.353 235.158 515.873 234.322C515.392 233.486 514.778 232.62 514.881 231.662C515.064 229.952 517.262 229.298 518.166 227.836C519.077 226.361 518.484 224.462 518.589 222.731C518.712 220.708 519.983 218.077 517.938 216.565C516.2 215.28 514.538 216.467 513.29 217.886C510.658 220.877 509.414 224.116 504.576 223.712Z" fill="#76BB63"/>
<path d="M519.776 193.482C520.631 195.119 522.414 196.096 523.346 197.69C524.357 199.418 524.241 201.651 525.338 203.326C526.462 205.044 528.726 205.957 529.357 207.911C530.045 210.045 528.483 212.638 529.728 214.503C529.961 214.808 530.254 215.061 530.589 215.246C530.924 215.432 531.294 215.546 531.676 215.581C532.057 215.616 532.442 215.571 532.806 215.45C533.169 215.329 533.503 215.133 533.787 214.876C534.312 214.304 534.593 213.55 534.57 212.774C534.547 211.998 534.222 211.261 533.664 210.722C532.927 210.049 531.868 209.759 531.252 208.973C530.932 208.52 530.718 208 530.628 207.452C530.292 205.872 530.346 204.234 530.784 202.68C530.949 202.285 530.991 201.85 530.904 201.431C530.627 200.626 529.536 200.569 528.77 200.195C527.031 199.346 527.074 196.892 527.377 194.98C527.175 196.253 522.643 194.089 522.168 193.368C521.225 191.936 521.738 189.174 521.552 187.592C519.516 188.573 518.731 191.481 519.776 193.482Z" fill="#76BB63"/>
<path d="M474.114 218.67C473.278 217.734 472.018 216.754 470.896 217.319C470.04 217.75 469.805 218.933 470.14 219.831C470.549 220.703 471.178 221.453 471.965 222.007C474.303 223.934 476.82 225.674 478.859 227.915C482.508 231.925 484.441 237.336 488.409 241.03C489.207 241.886 490.263 242.458 491.416 242.657C492.572 242.765 493.871 242.025 494.004 240.871C494.113 239.921 493.451 239.071 492.803 238.366C491.262 236.69 489.574 235.146 488.119 233.394C487.447 232.721 487.024 231.839 486.921 230.893C486.914 229.95 487.774 228.963 488.688 229.196C487.577 228.912 486.752 227.06 485.121 226.712C483.757 226.421 483.427 227.265 481.805 226.569C478.71 225.242 476.282 221.096 474.114 218.67Z" fill="#76BB63"/>
<path d="M546.835 127.482C545.947 127.218 545.074 126.907 544.22 126.548C541.923 125.858 538.882 127.547 539.188 129.927C539.392 131.508 540.863 132.574 541.676 133.945C542.881 135.979 542.56 138.558 541.927 140.836C541.771 141.541 541.475 142.208 541.057 142.797C540.472 143.418 539.773 143.921 538.998 144.278C535.895 146.018 533.158 148.343 530.939 151.124C530.698 151.381 530.53 151.698 530.453 152.041C530.343 152.845 531.151 153.43 531.607 154.1C532.622 155.589 531.888 157.592 531.989 159.39C531.973 159.644 532.023 159.898 532.133 160.128C532.244 160.358 532.411 160.555 532.619 160.702C533.23 161.013 533.955 160.485 534.286 159.885C535.385 157.893 534.557 154.695 536.62 153.735C537.01 153.553 537.483 153.477 537.743 153.134C538.156 152.59 537.758 151.785 537.967 151.135C538.281 150.159 539.616 150.115 540.64 150.159C542.405 150.232 544.168 149.998 545.852 149.465C546.512 149.308 547.112 148.96 547.577 148.466C548.194 147.696 548.139 146.602 548.016 145.624C547.399 140.746 545.854 136.032 543.464 131.735C545.276 131.966 547.247 132.167 548.811 131.222C549.687 130.694 550.736 129.112 550.302 128.036C549.616 126.334 548.375 127.767 546.835 127.482Z" fill="#76BB63"/>
<path d="M314.544 154.307C314.76 155.47 314.974 156.695 314.593 157.815C314.211 158.935 313.012 159.871 311.88 159.528C311.002 159.261 310.494 158.378 309.87 157.704C306.4 153.958 298.572 156.127 296.429 151.493C295.554 149.602 296.149 147.336 295.552 145.339C295.176 144.185 294.427 143.189 293.423 142.507C292.419 141.825 291.217 141.496 290.005 141.571C288.9 141.731 287.825 142.052 286.813 142.524C280.036 145.238 272.922 147.017 265.665 147.813C264.286 147.897 262.922 148.146 261.602 148.553C258.622 149.633 256.586 152.395 255.137 155.214C253.688 158.033 252.619 161.085 250.676 163.589C248.635 166.221 245.774 168.064 243.106 170.058C242.078 170.72 241.222 171.617 240.608 172.675C240.03 173.863 240.062 175.244 240.107 176.565L240.653 192.601C240.723 194.663 240.811 196.8 241.734 198.645C242.887 200.95 245.164 202.46 246.744 204.496C248.356 206.589 249.196 209.174 249.121 211.814C249.088 212.876 248.982 214.132 249.809 214.798C250.312 215.124 250.9 215.294 251.5 215.285L273.192 217.06C277.007 217.372 281.236 217.886 283.727 220.793C284.903 222.165 285.848 224.138 287.649 224.285C288.421 224.348 289.173 224.031 289.945 223.97C291.895 223.816 293.607 225.295 294.688 226.925C296.323 229.409 297.066 232.375 296.793 235.336C296.616 237.195 296.04 239.002 295.915 240.865C295.443 247.955 301.453 254.115 301.569 261.219C301.638 265.398 299.654 269.302 297.72 273.007C300.841 277.736 298.285 284.033 299.528 289.561C300.707 294.806 305.08 298.912 306.17 304.176C306.669 306.586 306.697 309.552 308.822 310.793C309.755 311.247 310.789 311.454 311.824 311.394C318.07 311.468 324.246 310.062 329.844 307.291C332.472 305.987 335.195 304.041 335.654 301.144C336.024 298.807 334.839 296.194 336.045 294.158C337.466 291.76 341.107 291.95 343.198 290.106C346.59 287.114 343.945 281.408 345.319 277.099C346.555 273.225 350.808 271.167 352.916 267.691C353.746 266.196 354.341 264.582 354.681 262.907C355.647 258.902 356.248 254.818 356.477 250.704C356.533 248.205 356.718 245.711 357.029 243.23C359.302 229.109 373.262 219.654 377.795 206.089C378.227 204.793 378.431 203.067 377.278 202.334C376.594 202.008 375.82 201.927 375.083 202.105L365.084 203.365C363.842 203.522 362.525 203.668 361.385 203.152C360.244 202.637 359.427 201.194 360.032 200.098C361.73 197.021 358.236 193.134 356.684 189.981C352.504 181.492 347.527 173.42 341.819 165.873C341.453 165.485 341.224 164.988 341.167 164.458L344.005 164.552C343.047 161.115 341.466 157.353 338.126 156.096C336.244 155.387 334.16 155.632 332.152 155.742C326.401 156.056 320.236 155.188 314.544 154.307Z" fill="#76BB63"/>
<path d="M332.157 76.8422C333.662 78.4404 335.348 80.1348 337.526 80.4134C341.372 80.9054 344.137 76.9284 345.898 73.4739C345.963 74.3545 346.369 75.1751 347.03 75.7609C347.69 76.3467 348.554 76.6517 349.436 76.6108C350.385 76.4511 351.291 76.0969 352.097 75.5704C359.717 71.4061 368.252 69.1998 376.936 69.1494C376.852 68.4916 377.015 67.8263 377.394 67.2817C377.772 66.7371 378.339 66.352 378.984 66.2005C380.75 65.8505 382.34 67.3769 383.192 68.9625C384.043 70.5481 384.574 72.386 385.928 73.5729C387.281 74.7597 389.9 74.708 390.435 72.9893C390.948 71.3393 389.229 69.9322 387.801 68.9594C386.373 67.9866 384.868 66.1861 385.829 64.7505C393.125 63.1355 400.466 61.5143 407.932 61.1933C409.203 61.2376 410.47 61.0194 411.653 60.5524C412.791 59.9937 413.696 58.7254 413.39 57.4947C411.761 57.8777 410.055 57.7668 408.489 57.1761C406.923 56.5855 405.568 55.5418 404.598 54.1783C414.957 53.3234 425.975 52.5948 435.156 57.4692C436.257 59.8342 430.642 61.8019 432.145 63.9351C432.624 64.6154 433.584 64.6952 434.416 64.7106C440.796 64.8291 447.212 64.9452 453.52 63.982C455.825 63.6301 458.153 63.1332 460.468 63.4186C464.322 63.894 467.619 66.466 471.412 67.3046C472.955 67.6459 474.686 67.6575 475.987 66.7597C477.288 65.8619 477.847 63.8177 476.781 62.6506C480.352 59.1511 486.278 60.0184 490.989 61.6938C495.699 63.3692 500.162 66.0711 505.147 66.4446C508.722 66.7124 512.347 65.7507 515.88 66.362C518.1 66.7461 520.166 67.7337 522.336 68.3404C526.439 69.488 530.78 69.2457 535.041 69.301C545.912 69.4474 556.664 71.584 566.766 75.6049C568.08 76.0327 569.284 76.744 570.292 77.6885C571.232 78.695 571.711 80.2591 571.08 81.4827L560.642 79.9576C561.625 81.8936 564.17 82.2236 566.236 82.8914C568.302 83.5593 570.444 85.841 569.202 87.6224C566.964 86.9096 564.935 89.1479 563.804 91.2073C562.673 93.2667 561.295 95.7331 558.949 95.8585C556.848 95.9709 554.307 94.182 552.938 95.7792C554.83 98.1659 556.45 100.756 557.768 103.501C559.121 106.32 560.085 109.871 558.256 112.407C557.968 112.86 557.532 113.198 557.022 113.364C555.529 113.742 554.558 111.915 553.487 110.808C552.138 109.413 550.097 109.017 548.269 108.363C546.442 107.709 544.516 106.421 544.373 104.485C544.284 103.281 544.92 102.161 545.389 101.048C546.176 99.1713 546.52 97.1387 546.395 95.1077C546.292 93.4737 545.834 91.774 544.661 90.6323C543.487 89.4906 541.461 89.1284 540.201 90.1741C539.614 90.662 539.143 91.4424 538.379 91.4716C537.03 91.5232 535.995 89.1717 534.91 89.9744C535.037 90.8297 534.86 91.7025 534.409 92.4403C531.17 95.2566 526.196 94.0652 522.021 95.06C520.036 95.6281 518.135 96.4582 516.37 97.5282C515.709 97.8106 515.147 98.2825 514.754 98.8841C514.233 99.8968 514.808 101.194 515.726 101.867C516.7 102.464 517.795 102.838 518.931 102.961C524.02 103.925 529.184 105.417 533.202 108.686C537.22 111.955 539.855 117.359 538.583 122.38L528.547 112.79C528.928 116.817 529.144 120.854 529.196 124.903C529.261 125.694 529.152 126.489 528.878 127.233C528.162 128.813 526.223 129.345 524.524 129.694C524.051 129.784 523.603 129.973 523.208 130.248C522.814 130.523 522.482 130.879 522.235 131.292C521.987 131.705 521.83 132.165 521.773 132.643C521.717 133.12 521.762 133.605 521.906 134.064C522.509 136.032 524.015 137.566 525.393 139.095C526.772 140.624 528.128 142.361 528.308 144.412C528.489 146.463 526.942 148.774 524.888 148.631C523.332 148.523 522.177 147.13 521.513 145.717C520.849 144.305 520.454 142.732 519.456 141.532C516.436 137.9 509.653 139.456 506.948 135.585C506.259 136.367 505.78 137.312 505.559 138.331C505.338 139.35 505.38 140.409 505.683 141.407C506.942 140.619 508.664 141.351 509.61 142.496C510.556 143.64 511.002 145.108 511.744 146.394C512.746 148.129 514.341 149.667 514.481 151.666C514.444 152.421 514.456 153.179 514.519 153.933C514.767 155.144 515.791 156.013 516.501 157.026C518.152 159.381 518.07 162.617 517.006 165.289C515.942 167.961 514.029 170.194 512.135 172.359C508.827 176.141 505.452 179.9 501.53 183.04C500.411 183.936 499.216 184.817 498.519 186.07C497.822 187.323 497.787 189.081 498.858 190.034C498.091 190.073 496.717 190.45 495.95 190.488C495.681 187.414 495.622 184.325 495.775 181.242C492.751 179.79 489.495 183.679 489.885 187.011C490.275 190.343 492.685 193.017 494.401 195.9C495.656 198.008 496.588 200.466 496.169 202.884C495.751 205.301 493.593 207.531 491.149 207.318C487.261 206.979 485.635 201.398 481.785 200.759C481.446 200.679 481.089 200.715 480.772 200.86C480.201 201.173 480.101 201.938 480.069 202.589C479.912 205.784 479.775 209.107 481.023 212.053C482.848 216.363 487.562 219.983 486.573 224.558C481.246 222.082 478.476 216.107 477.218 210.369C475.961 204.63 475.751 198.606 473.497 193.181C471.785 195.375 468.187 193.561 466.623 191.259C465.14 189.077 464.227 186.553 462.789 184.341C461.35 182.13 459.146 180.149 456.511 180.028C453.748 179.9 451.351 181.796 449.244 183.588C447.511 185.061 445.731 186.593 444.718 188.629C443.244 191.593 443.63 195.086 443.559 198.395C443.482 201.973 442.724 205.748 440.286 208.367C437.847 210.985 433.347 211.898 430.658 209.537C429.253 208.305 428.574 206.464 427.968 204.697C425.049 196.178 422.618 187.5 420.687 178.704C420.235 180.712 418.473 183.299 416.789 182.116C416.411 181.799 416.105 181.404 415.89 180.959C412.749 175.635 406.932 172.442 401.054 170.527C395.177 168.612 388.993 167.719 383.18 165.615C379.923 164.435 376.812 162.886 373.908 160.996C373.168 162.084 372.736 163.351 372.658 164.665C372.579 165.978 372.857 167.288 373.463 168.456C374.752 170.739 377.67 172.059 380.167 171.262C381.458 170.849 382.548 169.953 383.828 169.511C385.109 169.068 386.828 169.285 387.388 170.519C387.924 171.7 387.114 173.129 387.515 174.362C388.128 176.24 390.96 176.384 391.95 178.093C392.687 179.365 392.081 181.053 391.029 182.079C389.977 183.105 388.573 183.668 387.288 184.382C383.121 186.7 380.157 190.656 376.515 193.734C372.873 196.812 367.734 199.059 363.394 197.084C364.429 191.845 358.188 187.999 357.04 182.783C356.662 181.067 356.858 179.243 356.318 177.57C355.537 175.148 353.388 173.483 351.625 171.648C349.487 169.397 347.822 166.741 346.726 163.837C345.631 160.932 345.129 157.837 345.25 154.736C345.345 152.58 345.741 150.39 345.25 148.289C344.759 146.188 343.019 144.154 340.864 144.249C335.941 144.467 329.739 144.833 327.156 140.636C326.234 139.138 325.833 136.945 327.166 135.797C328.106 134.988 329.494 135.064 330.728 135.185L341.821 136.277C344.415 136.532 347.22 136.742 349.446 135.386C351.672 134.03 352.637 130.43 350.575 128.834C349.069 127.668 346.371 127.731 345.933 125.878C345.568 124.334 347.277 122.582 346.354 121.292C345.692 120.367 344.204 120.623 343.303 121.317C342.401 122.01 341.747 123.024 340.738 123.55C338.968 124.471 336.853 123.594 334.949 122.998C333.045 122.402 330.492 122.352 329.568 124.12C328.535 126.099 330.484 128.69 329.459 130.673C328.104 133.293 323.514 131.801 321.61 134.055C319.426 136.642 323.097 140.499 322.36 143.803C321.419 144.269 320.374 144.483 319.326 144.424C318.279 144.365 317.264 144.036 316.382 143.467C315.514 142.877 314.822 142.063 314.38 141.111C313.938 140.159 313.763 139.105 313.872 138.061C314.055 136.574 314.83 135.057 314.31 133.652C313.891 132.516 312.75 131.84 311.69 131.255L300.911 125.298C299.91 127.155 301.176 129.456 302.758 130.851C304.34 132.245 306.322 133.295 307.362 135.13C308.019 136.402 308.167 137.876 307.774 139.253C307.381 140.629 306.477 141.804 305.248 142.537C305.094 142.643 304.918 142.715 304.734 142.747C304.549 142.779 304.36 142.771 304.179 142.723C304.007 142.622 303.857 142.487 303.738 142.327C303.619 142.167 303.534 141.985 303.486 141.791C301.584 136.924 298.729 132.125 294.164 129.583C289.598 127.04 283.039 127.563 280.045 131.846C279.334 132.863 278.857 134.023 278.237 135.098C274.946 140.813 267.891 143.518 261.299 143.342C260.654 143.377 260.013 143.227 259.451 142.907C258.386 142.172 258.434 140.61 258.597 139.326L259.289 133.875C259.428 132.781 259.629 131.571 260.496 130.888C261.717 129.925 263.478 130.532 265.033 130.51C266.212 130.455 267.344 130.039 268.278 129.318C269.212 128.598 269.901 127.607 270.253 126.482C270.568 125.345 270.566 124.144 270.248 123.008C269.93 121.872 269.308 120.845 268.449 120.036C267.736 119.367 266.78 118.526 267.156 117.623C267.306 117.374 267.509 117.16 267.751 116.997C267.993 116.835 268.267 116.727 268.555 116.681C271.348 115.87 274.3 115.658 277.047 114.7C279.794 113.743 282.457 111.785 283.108 108.95C283.307 108.081 283.398 107.029 284.178 106.598C284.57 106.432 284.991 106.346 285.416 106.345C286.905 106.133 288.261 105.371 289.216 104.21C290.172 103.048 290.658 101.571 290.58 100.069C291.896 99.1492 293.74 99.8258 295.014 100.804C296.287 101.783 297.412 103.075 298.961 103.497C301.849 104.283 304.64 101.726 307.633 101.714C308.891 101.709 310.194 102.154 311.378 101.727C312.579 101.295 313.295 100.1 314.217 99.2172C315.138 98.3345 316.754 97.7961 317.605 98.747L316.881 93.3813C318.339 93.7499 319.86 93.802 321.341 93.5343C322.822 93.2666 324.228 92.6853 325.465 91.8293L316.103 88.6659C315.777 88.5845 315.476 88.4237 315.228 88.1978C314.547 87.4649 315.223 86.3228 315.777 85.4896C317.101 83.4965 317.323 80.2134 315.146 79.2211C313.659 78.5438 311.953 79.3568 310.527 80.1522L303.694 83.9623C303.477 85.2611 305.065 85.9972 306.049 86.8721C306.645 87.4015 307.066 88.0986 307.258 88.8718C307.45 89.6451 307.404 90.4583 307.125 91.2048C306.847 91.9513 306.349 92.596 305.697 93.0543C305.046 93.5127 304.27 93.7632 303.474 93.773C303.924 94.358 304.236 95.0367 304.388 95.7589C304.541 96.4811 304.528 97.2282 304.353 97.9451L299.755 98.2757C299.239 98.3795 298.703 98.2749 298.264 97.9847C297.772 97.548 297.839 96.7827 297.725 96.135C297.45 94.5717 295.919 93.476 294.357 93.195C292.794 92.9141 291.196 93.2742 289.649 93.6298C288.992 93.8662 288.271 93.8495 287.626 93.5831C287.256 93.3427 286.975 92.9878 286.825 92.5727C286.147 90.9282 286.781 88.9953 287.87 87.589C288.96 86.1827 290.451 85.1547 291.79 83.984C294.992 81.174 297.345 77.5244 298.583 73.4476C301.114 72.3871 303.734 70.9463 306.265 69.8859C310.167 67.9103 314.543 67.0625 318.9 67.4378L327.472 67.6015C330.009 67.6499 332.616 67.7121 334.962 68.6795C337.309 69.647 339.371 71.7394 339.533 74.2724C339.582 74.5592 339.557 74.8536 339.461 75.1282C339.365 75.4027 339.2 75.6483 338.983 75.842C338.652 76.0228 338.276 76.1074 337.899 76.0862C335.533 76.1694 334.524 76.7591 332.157 76.8422Z" fill="#76BB63"/>
<path d="M263.838 103.704C264.173 103.387 264.414 102.984 264.535 102.539C264.656 102.094 264.651 101.624 264.522 101.182C263.708 100.867 262.821 100.787 261.963 100.949C261.105 101.111 260.309 101.509 259.665 102.099C259.157 102.613 258.719 103.191 258.363 103.82C257.237 105.657 256.241 107.852 256.893 109.906C256.947 110.13 257.044 110.341 257.18 110.527C257.316 110.713 257.487 110.87 257.685 110.988C257.977 111.106 258.293 111.155 258.607 111.133C259.848 111.131 261.087 111.055 262.319 110.904C263.075 110.812 263.954 110.598 264.246 109.895C264.63 108.97 263.7 107.923 263.971 106.959C264.15 106.527 264.42 106.14 264.763 105.824C264.934 105.665 265.065 105.469 265.146 105.25C265.227 105.032 265.256 104.797 265.231 104.566C265.121 104.113 264.428 103.856 264.179 104.25" fill="#76BB63"/>
<path d="M270.272 95.363C269.17 95.1099 268.034 95.0386 266.909 95.1518C266.66 95.1444 266.413 95.2004 266.192 95.3146C265.978 95.4727 265.822 95.6978 265.75 95.9542C265.513 96.717 265.571 97.5414 265.914 98.263C266.257 98.9847 266.859 99.5507 267.6 99.8484C268.004 99.9413 268.392 100.097 268.748 100.309C269.699 101.048 269.092 102.556 269.273 103.747C269.475 105.084 270.769 106.206 270.532 107.537C270.345 108.586 269.225 109.416 269.405 110.466C269.594 111.566 270.989 111.896 272.101 111.984C272.746 112.097 273.409 112.021 274.012 111.765C274.615 111.352 275.045 110.73 275.217 110.02C275.672 108.664 275.864 107.234 275.781 105.807C275.776 105.158 275.613 104.519 275.306 103.947C274.971 103.494 274.599 103.069 274.195 102.676C272.065 100.198 274.308 96.5004 270.272 95.363Z" fill="#76BB63"/>
<path d="M109.5 119C111.433 119 113 117.433 113 115.5C113 113.567 111.433 112 109.5 112C107.567 112 106 113.567 106 115.5C106 117.433 107.567 119 109.5 119Z" fill="white"/>
<path d="M95.5 143C97.433 143 99 141.433 99 139.5C99 137.567 97.433 136 95.5 136C93.567 136 92 137.567 92 139.5C92 141.433 93.567 143 95.5 143Z" fill="white"/>
<path d="M72.5 135C74.433 135 76 133.433 76 131.5C76 129.567 74.433 128 72.5 128C70.567 128 69 129.567 69 131.5C69 133.433 70.567 135 72.5 135Z" fill="white"/>
<path d="M68.5 163C70.433 163 72 161.433 72 159.5C72 157.567 70.433 156 68.5 156C66.567 156 65 157.567 65 159.5C65 161.433 66.567 163 68.5 163Z" fill="white"/>
<path d="M147.5 274C149.433 274 151 272.433 151 270.5C151 268.567 149.433 267 147.5 267C145.567 267 144 268.567 144 270.5C144 272.433 145.567 274 147.5 274Z" fill="white"/>
<path d="M170.5 259C172.433 259 174 257.433 174 255.5C174 253.567 172.433 252 170.5 252C168.567 252 167 253.567 167 255.5C167 257.433 168.567 259 170.5 259Z" fill="white"/>
<path d="M148.5 306C150.433 306 152 304.433 152 302.5C152 300.567 150.433 299 148.5 299C146.567 299 145 300.567 145 302.5C145 304.433 146.567 306 148.5 306Z" fill="white"/>
<path d="M260.5 185C262.433 185 264 183.433 264 181.5C264 179.567 262.433 178 260.5 178C258.567 178 257 179.567 257 181.5C257 183.433 258.567 185 260.5 185Z" fill="white"/>
<path d="M334.5 199C336.433 199 338 197.433 338 195.5C338 193.567 336.433 192 334.5 192C332.567 192 331 193.567 331 195.5C331 197.433 332.567 199 334.5 199Z" fill="white"/>
<path d="M341.5 241C343.433 241 345 239.433 345 237.5C345 235.567 343.433 234 341.5 234C339.567 234 338 235.567 338 237.5C338 239.433 339.567 241 341.5 241Z" fill="white"/>
<path d="M314.5 119C316.433 119 318 117.433 318 115.5C318 113.567 316.433 112 314.5 112C312.567 112 311 113.567 311 115.5C311 117.433 312.567 119 314.5 119Z" fill="white"/>
<path d="M211.5 76C213.433 76 215 74.433 215 72.5C215 70.567 213.433 69 211.5 69C209.567 69 208 70.567 208 72.5C208 74.433 209.567 76 211.5 76Z" fill="white"/>
<path d="M354.5 100C356.433 100 358 98.433 358 96.5C358 94.567 356.433 93 354.5 93C352.567 93 351 94.567 351 96.5C351 98.433 352.567 100 354.5 100Z" fill="white"/>
<path d="M391.5 112C393.433 112 395 110.433 395 108.5C395 106.567 393.433 105 391.5 105C389.567 105 388 106.567 388 108.5C388 110.433 389.567 112 391.5 112Z" fill="white"/>
<path d="M376.5 140C378.433 140 380 138.433 380 136.5C380 134.567 378.433 133 376.5 133C374.567 133 373 134.567 373 136.5C373 138.433 374.567 140 376.5 140Z" fill="white"/>
<path d="M490.5 87C492.433 87 494 85.433 494 83.5C494 81.567 492.433 80 490.5 80C488.567 80 487 81.567 487 83.5C487 85.433 488.567 87 490.5 87Z" fill="white"/>
<path d="M503.5 120C505.433 120 507 118.433 507 116.5C507 114.567 505.433 113 503.5 113C501.567 113 500 114.567 500 116.5C500 118.433 501.567 120 503.5 120Z" fill="white"/>
<path d="M465.5 113C467.433 113 469 111.433 469 109.5C469 107.567 467.433 106 465.5 106C463.567 106 462 107.567 462 109.5C462 111.433 463.567 113 465.5 113Z" fill="white"/>
<path d="M523.5 295C525.433 295 527 293.433 527 291.5C527 289.567 525.433 288 523.5 288C521.567 288 520 289.567 520 291.5C520 293.433 521.567 295 523.5 295Z" fill="white"/>
<path d="M551.5 306C553.433 306 555 304.433 555 302.5C555 300.567 553.433 299 551.5 299C549.567 299 548 300.567 548 302.5C548 304.433 549.567 306 551.5 306Z" fill="white"/>
<path d="M567.5 288C569.433 288 571 286.433 571 284.5C571 282.567 569.433 281 567.5 281C565.567 281 564 282.567 564 284.5C564 286.433 565.567 288 567.5 288Z" fill="white"/>
<path d="M435.5 173C437.433 173 439 171.433 439 169.5C439 167.567 437.433 166 435.5 166C433.567 166 432 167.567 432 169.5C432 171.433 433.567 173 435.5 173Z" fill="white"/>
<path d="M476.5 156C478.433 156 480 154.433 480 152.5C480 150.567 478.433 149 476.5 149C474.567 149 473 150.567 473 152.5C473 154.433 474.567 156 476.5 156Z" fill="white"/>
<path d="M318.5 268C320.433 268 322 266.433 322 264.5C322 262.567 320.433 261 318.5 261C316.567 261 315 262.567 315 264.5C315 266.433 316.567 268 318.5 268Z" fill="white"/>
<path d="M307.5 216C309.433 216 311 214.433 311 212.5C311 210.567 309.433 209 307.5 209C305.567 209 304 210.567 304 212.5C304 214.433 305.567 216 307.5 216Z" fill="white"/>
<path d="M414 92.955C414 89.6675 416.668 87.0038 419.955 87.0084L444.062 87.0426C447.343 87.0472 450 89.7082 450 92.9891V125.053C450 128.338 447.338 131 444.053 131L419.947 131C416.662 131 414 128.338 414 125.054V92.955Z" fill="#505050"/>
<path d="M442.59 139.883V129.877H430.697L440.521 140.683C441.252 141.487 442.59 140.97 442.59 139.883Z" fill="#505050"/>
<rect x="421" y="94" width="22" height="30" rx="2.26487" fill="#4F9C3A"/>
<path d="M427.375 108.4L431.04 102.536C431.483 101.827 432.517 101.827 432.96 102.536L436.625 108.4C436.854 108.767 436.854 109.233 436.625 109.6L432.96 115.464C432.517 116.173 431.483 116.173 431.04 115.464L427.375 109.6C427.146 109.233 427.146 108.767 427.375 108.4Z" fill="white"/>
<path d="M334 237.955C334 234.668 336.668 232.004 339.955 232.008L364.062 232.043C367.343 232.047 370 234.708 370 237.989V270.053C370 273.338 367.338 276 364.053 276L339.947 276C336.662 276 334 273.338 334 270.054V237.955Z" fill="#505050"/>
<path d="M362.59 284.883V274.877H350.697L360.521 285.683C361.252 286.487 362.59 285.97 362.59 284.883Z" fill="#505050"/>
<rect x="341" y="239" width="22" height="30" rx="2.26487" fill="#4F9C3A"/>
<path d="M347.375 253.4L351.04 247.536C351.483 246.827 352.517 246.827 352.96 247.536L356.625 253.4C356.854 253.767 356.854 254.233 356.625 254.6L352.96 260.464C352.517 261.173 351.483 261.173 351.04 260.464L347.375 254.6C347.146 254.233 347.146 253.767 347.375 253.4Z" fill="white"/>
<path d="M196 19.955C196 16.6675 198.668 14.0038 201.955 14.0084L226.062 14.0426C229.343 14.0472 232 16.7082 232 19.9891V52.0535C232 55.3376 229.338 58 226.053 58L201.947 58.0001C198.662 58.0001 196 55.3377 196 52.0535V19.955Z" fill="#505050"/>
<path d="M224.59 66.8831V56.877H212.697L222.521 67.6831C223.252 68.4875 224.59 67.9702 224.59 66.8831Z" fill="#505050"/>
<rect x="203" y="21" width="22" height="30" rx="2.26487" fill="#4F9C3A"/>
<path d="M209.375 35.3998L213.04 29.5365C213.483 28.8268 214.517 28.8268 214.96 29.5365L218.625 35.3998C218.854 35.767 218.854 36.233 218.625 36.6002L214.96 42.4635C214.517 43.1732 213.483 43.1732 213.04 42.4635L209.375 36.6002C209.146 36.233 209.146 35.767 209.375 35.3998Z" fill="white"/>
<path d="M515 240.955C515 237.668 517.668 235.004 520.955 235.008L545.062 235.043C548.343 235.047 551 237.708 551 240.989V273.053C551 276.338 548.338 279 545.053 279L520.947 279C517.662 279 515 276.338 515 273.054V240.955Z" fill="#505050"/>
<path d="M543.59 287.883V277.877H531.697L541.521 288.683C542.252 289.487 543.59 288.97 543.59 287.883Z" fill="#505050"/>
<rect x="522" y="242" width="22" height="30" rx="2.26487" fill="#4F9C3A"/>
<path d="M528.375 256.4L532.04 250.536C532.483 249.827 533.517 249.827 533.96 250.536L537.625 256.4C537.854 256.767 537.854 257.233 537.625 257.6L533.96 263.464C533.517 264.173 532.483 264.173 532.04 263.464L528.375 257.6C528.146 257.233 528.146 256.767 528.375 256.4Z" fill="white"/>
<path d="M42 68.9516C42 65.6654 44.6654 63.0022 47.9516 63.005L96.0585 63.0456C99.3407 63.0483 102 65.7099 102 68.9921V100.74C102 104.011 99.3586 106.668 96.0879 106.687L47.981 106.965C44.6834 106.984 42 104.317 42 101.019V68.9516Z" fill="#505050"/>
<path d="M85.8427 116.207V106.201H73.9495L83.7733 117.007C84.5046 117.812 85.8427 117.294 85.8427 116.207Z" fill="#505050"/>
<rect x="49" y="70" width="46" height="30" rx="2.26487" fill="#76BB63"/>
<path d="M76.7614 84.8168L76.0172 79.4052C75.9389 78.836 75.3954 78.4517 74.8327 78.5677C74.3767 78.6617 74.0471 79.0594 74.0362 79.5248C73.9502 83.1829 73.7548 87.6503 76.4126 91.9347C79.8778 96.3305 86.5513 92.876 86.7159 90.0075C86.8198 88.1962 88.4871 85.1356 89.6084 83.2813C89.9081 82.7858 89.7923 82.1411 89.3297 81.7928C88.8333 81.4191 88.1268 81.5264 87.7638 82.0306L87.0448 83.0292C86.5563 83.7077 85.4897 83.4415 85.3774 82.6129L84.6672 77.375C84.5805 76.7349 83.9863 76.2898 83.3476 76.3865C82.7187 76.4816 82.2845 77.0666 82.3756 77.6961L83.1117 82.785C83.1359 82.9522 83.0196 83.1072 82.8523 83.1308C82.6858 83.1543 82.5317 83.0386 82.5077 82.8722L81.5948 76.5362C81.506 75.9203 80.948 75.4834 80.3288 75.5451C79.6793 75.6098 79.2103 76.1964 79.2901 76.8442L80.0892 83.332C80.1099 83.4995 79.9924 83.6527 79.8253 83.6762C79.6573 83.6999 79.5015 83.5839 79.4761 83.4161L78.6405 77.8949C78.5516 77.3076 77.9967 76.9086 77.4117 77.0113C76.8559 77.1089 76.4746 77.6255 76.5451 78.1854L77.37 84.7367C77.391 84.9031 77.2744 85.0555 77.1083 85.079C76.9401 85.1027 76.7845 84.9852 76.7614 84.8168Z" fill="white"/>
<path d="M67.2369 84.9207L68.0903 79.5251C68.18 78.9576 68.7311 78.5844 69.2914 78.7118C69.7454 78.815 70.0669 79.2192 70.0684 79.6848C70.0806 83.3439 70.1857 87.8143 67.442 92.0441C63.8887 96.3691 57.2863 92.7805 57.1797 89.9093C57.1124 88.0962 55.5072 85.0027 54.4235 83.1261C54.1339 82.6246 54.2627 81.9823 54.7323 81.6435C55.2361 81.2799 55.9403 81.4015 56.293 81.9129L56.9917 82.9257C57.4664 83.614 58.5382 83.3693 58.6672 82.5432L59.483 77.3207C59.5826 76.6825 60.1857 76.2495 60.8223 76.359C61.4491 76.4669 61.8714 77.0605 61.7676 77.688L60.9289 82.761C60.9013 82.9277 61.0145 83.085 61.1813 83.112C61.3473 83.1388 61.5037 83.0263 61.531 82.8604L62.5717 76.5442C62.6729 75.9301 63.2396 75.5046 63.8575 75.5788C64.5055 75.6566 64.9626 76.2525 64.8697 76.8986L63.9398 83.3689C63.9157 83.536 64.03 83.6915 64.1967 83.7185C64.3642 83.7455 64.5223 83.6327 64.5511 83.4654L65.4979 77.9622C65.5987 77.3768 66.1615 76.9891 66.7444 77.1036C67.2981 77.2124 67.6689 77.7366 67.5871 78.2949L66.63 84.8282C66.6057 84.9942 66.7192 85.149 66.8848 85.1758C67.0525 85.2029 67.2104 85.0885 67.2369 84.9207Z" fill="white"/>
<path d="M489 149.952C489 146.665 491.665 144.002 494.952 144.005L543.058 144.046C546.341 144.048 549 146.71 549 149.992V181.74C549 185.011 546.359 187.668 543.088 187.687L494.981 187.965C491.683 187.984 489 185.317 489 182.019V149.952Z" fill="#505050"/>
<path d="M532.843 197.207V187.201H520.95L530.773 198.007C531.505 198.812 532.843 198.294 532.843 197.207Z" fill="#505050"/>
<rect x="496" y="151" width="46" height="30" rx="2.26487" fill="#76BB63"/>
<path d="M523.761 165.817L523.017 160.405C522.939 159.836 522.395 159.452 521.833 159.568C521.377 159.662 521.047 160.059 521.036 160.525C520.95 164.183 520.755 168.65 523.413 172.935C526.878 177.33 533.551 173.876 533.716 171.007C533.82 169.196 535.487 166.136 536.608 164.281C536.908 163.786 536.792 163.141 536.33 162.793C535.833 162.419 535.127 162.526 534.764 163.031L534.045 164.029C533.556 164.708 532.49 164.441 532.377 163.613L531.667 158.375C531.58 157.735 530.986 157.29 530.348 157.386C529.719 157.482 529.285 158.067 529.376 158.696L530.112 163.785C530.136 163.952 530.02 164.107 529.852 164.131C529.686 164.154 529.532 164.039 529.508 163.872L528.595 157.536C528.506 156.92 527.948 156.483 527.329 156.545C526.679 156.61 526.21 157.196 526.29 157.844L527.089 164.332C527.11 164.5 526.992 164.653 526.825 164.676C526.657 164.7 526.502 164.584 526.476 164.416L525.641 158.895C525.552 158.308 524.997 157.909 524.412 158.011C523.856 158.109 523.475 158.626 523.545 159.185L524.37 165.737C524.391 165.903 524.274 166.056 524.108 166.079C523.94 166.103 523.785 165.985 523.761 165.817Z" fill="white"/>
<path d="M514.237 165.921L515.09 160.525C515.18 159.958 515.731 159.584 516.291 159.712C516.745 159.815 517.067 160.219 517.068 160.685C517.081 164.344 517.186 168.814 514.442 173.044C510.889 177.369 504.286 173.781 504.18 170.909C504.112 169.096 502.507 166.003 501.424 164.126C501.134 163.625 501.263 162.982 501.732 162.643C502.236 162.28 502.94 162.401 503.293 162.913L503.992 163.926C504.466 164.614 505.538 164.369 505.667 163.543L506.483 158.321C506.583 157.682 507.186 157.249 507.822 157.359C508.449 157.467 508.871 158.061 508.768 158.688L507.929 163.761C507.901 163.928 508.015 164.085 508.181 164.112C508.347 164.139 508.504 164.026 508.531 163.86L509.572 157.544C509.673 156.93 510.24 156.505 510.858 156.579C511.506 156.657 511.963 157.253 511.87 157.899L510.94 164.369C510.916 164.536 511.03 164.692 511.197 164.718C511.364 164.746 511.522 164.633 511.551 164.465L512.498 158.962C512.599 158.377 513.162 157.989 513.744 158.104C514.298 158.212 514.669 158.737 514.587 159.295L513.63 165.828C513.606 165.994 513.719 166.149 513.885 166.176C514.053 166.203 514.21 166.089 514.237 165.921Z" fill="white"/>
<path d="M279 144.955C279 141.668 281.668 139.004 284.955 139.008L309.062 139.043C312.343 139.047 315 141.708 315 144.989V177.053C315 180.338 312.338 183 309.053 183L284.947 183C281.662 183 279 180.338 279 177.054V144.955Z" fill="#505050"/>
<path d="M307.59 191.883V181.877H295.697L305.521 192.683C306.252 193.487 307.59 192.97 307.59 191.883Z" fill="#505050"/>
<rect x="286" y="146" width="22" height="30" rx="2.26487" fill="#76BB63"/>
<path fill-rule="evenodd" clip-rule="evenodd" d="M295.86 156.216C296.127 155.966 295.956 155.5 295.59 155.5H292.5C292.224 155.5 292 155.276 292 155V153C292 152.724 292.224 152.5 292.5 152.5H301.59C301.828 152.5 302.034 152.668 302.08 152.902L302.495 154.983C302.541 155.217 302.416 155.45 302.199 155.549C300.983 156.104 299.312 157.092 297.913 158.404C296.347 159.873 295.318 161.555 295.318 163.337C295.318 164.494 295.668 165.198 296.075 165.632C296.501 166.085 297.107 166.37 297.805 166.466C298.511 166.562 299.222 166.45 299.758 166.207C299.983 166.105 300.149 165.995 300.27 165.888C300.478 165.706 300.77 165.544 301.036 165.617L302.964 166.148C303.23 166.222 303.39 166.499 303.281 166.753C302.827 167.803 301.923 168.52 300.995 168.94C299.92 169.427 298.637 169.607 297.4 169.438C296.154 169.268 294.869 168.731 293.888 167.685C292.889 166.621 292.318 165.15 292.318 163.337C292.318 160.365 294.017 157.945 295.86 156.216Z" fill="white"/>
<path d="M305 37.955C305 34.6675 307.668 32.0038 310.955 32.0084L335.062 32.0426C338.343 32.0472 341 34.7082 341 37.9891V70.0535C341 73.3376 338.338 76 335.053 76L310.947 76.0001C307.662 76.0001 305 73.3377 305 70.0535V37.955Z" fill="#505050"/>
<path d="M333.59 84.8831V74.877H321.697L331.521 85.6831C332.252 86.4875 333.59 85.9702 333.59 84.8831Z" fill="#505050"/>
<rect x="312" y="39" width="22" height="30" rx="2.26487" fill="#76BB63"/>
<path fill-rule="evenodd" clip-rule="evenodd" d="M321.86 49.2161C322.127 48.9661 321.956 48.5 321.59 48.5H318.5C318.224 48.5 318 48.2761 318 48V46C318 45.7239 318.224 45.5 318.5 45.5H327.59C327.828 45.5 328.034 45.6684 328.08 45.9023L328.495 47.9832C328.541 48.217 328.416 48.4504 328.199 48.5494C326.983 49.1044 325.312 50.0924 323.913 51.4044C322.347 52.8728 321.318 54.5553 321.318 56.3366C321.318 57.4938 321.668 58.1976 322.075 58.6323C322.501 59.0853 323.107 59.3703 323.805 59.4656C324.511 59.5619 325.222 59.4499 325.758 59.2074C325.983 59.1053 326.149 58.9951 326.27 58.8884C326.478 58.7058 326.77 58.544 327.036 58.6174L328.964 59.1484C329.23 59.2218 329.39 59.499 329.281 59.7525C328.827 60.8027 327.923 61.5203 326.995 61.9403C325.92 62.4271 324.637 62.6069 323.4 62.438C322.154 62.268 320.869 61.7308 319.888 60.6851C318.889 59.6212 318.318 58.15 318.318 56.3366C318.318 53.3647 320.017 50.9447 321.86 49.2161Z" fill="white"/>
<path d="M119 204.955C119 201.668 121.668 199.004 124.955 199.008L149.062 199.043C152.343 199.047 155 201.708 155 204.989V237.053C155 240.338 152.338 243 149.053 243L124.947 243C121.662 243 119 240.338 119 237.054V204.955Z" fill="#505050"/>
<path d="M147.59 251.883V241.877H135.697L145.521 252.683C146.252 253.487 147.59 252.97 147.59 251.883Z" fill="#505050"/>
<rect x="126" y="206" width="22" height="30" rx="2.26487" fill="#4F9C3A"/>
<path d="M132.375 220.4L136.04 214.536C136.483 213.827 137.517 213.827 137.96 214.536L141.625 220.4C141.854 220.767 141.854 221.233 141.625 221.6L137.96 227.464C137.517 228.173 136.483 228.173 136.04 227.464L132.375 221.6C132.146 221.233 132.146 220.767 132.375 220.4Z" fill="white"/>
</svg>
