<svg width="48" height="48" viewBox="0 0 48 48" fill="none" xmlns="http://www.w3.org/2000/svg">
<g clip-path="url(#clip0_4723_11199)">
<path d="M1 44C0.447716 44 0 43.5523 0 43V37.5C0 36.9477 0.447715 36.5 1 36.5H4.8V9C4.8 7.625 5.2704 6.44833 6.2112 5.47C7.152 4.49167 8.2816 4.00167 9.6 4H44.6C45.1523 4 45.6 4.44772 45.6 5V8C45.6 8.55228 45.1523 9 44.6 9H10.6C10.0477 9 9.6 9.44771 9.6 10V36.5H23C23.5523 36.5 24 36.9477 24 37.5V43C24 43.5523 23.5523 44 23 44H1Z" fill="#505050"/>
<path d="M29.492 43.28C29.9512 43.76 30.5208 44 31.2008 44H45.6008C46.2792 44.0017 46.8488 43.7625 47.3096 43.2825C47.7704 42.8025 48.0008 42.2083 48.0008 41.5V16.5C48.0024 15.7933 47.7728 15.2 47.312 14.72C46.8512 14.24 46.2808 14 45.6008 14H31.2008C30.5224 14.0017 29.9528 14.2417 29.492 14.72C29.0312 15.1983 28.8008 15.7917 28.8008 16.5V41.5C28.8024 42.2067 29.0328 42.8 29.492 43.28Z" fill="#4F9C3A"/>
</g>
<defs>
<clipPath id="clip0_4723_11199">
<rect width="48" height="48" fill="white"/>
</clipPath>
</defs>
</svg>
