<svg width="48" height="48" viewBox="0 0 48 48" fill="none" xmlns="http://www.w3.org/2000/svg">
    <g clip-path="url(#clip0_4723_11206)">
        <path
            d="M36 6.8H40.8C44.88 6.8 48 9.92 48 14V16.3C48 16.5761 47.7761 16.8 47.5 16.8H0.5C0.223858 16.8 0 16.5761 0 16.3V14C0 9.92 3.12 6.8 7.2 6.8H12V2.4C12 0.96 12.96 0 14.4 0C15.84 0 16.8 0.96 16.8 2.4V6.8H31.2V2.4C31.2 0.96 32.16 0 33.6 0C35.04 0 36 0.96 36 2.4V6.8Z"
            fill="#505050" />
        <path fill-rule="evenodd" clip-rule="evenodd"
            d="M7.2 48.0016C3.12 48.0016 0 44.8816 0 40.8016V22.1016C0 21.8254 0.223859 21.6016 0.500001 21.6016H47.5C47.7761 21.6016 48 21.8254 48 22.1016V40.8016C48 44.8816 44.88 48.0016 40.8 48.0016H7.2ZM9 30C8.44772 30 8 30.4477 8 31V39C8 39.5523 8.44772 40 9 40H17C17.5523 40 18 39.5523 18 39V31C18 30.4477 17.5523 30 17 30H9Z"
            fill="#4F9C3A" />
    </g>
    <defs>
        <clipPath id="clip0_4723_11206">
            <rect width="48" height="48" fill="white" />
        </clipPath>
    </defs>
</svg>