<svg width="546" height="364" viewBox="0 0 546 364" fill="none" xmlns="http://www.w3.org/2000/svg">
<g clip-path="url(#clip0_5307_19673)">
<mask id="mask0_5307_19673" style="mask-type:luminance" maskUnits="userSpaceOnUse" x="0" y="-1" width="546" height="366">
<path d="M0 -0.000183105H546V364H0V-0.000183105Z" fill="white"/>
</mask>
<g mask="url(#mask0_5307_19673)">
<path d="M34.7519 155.489C20.9592 215.398 117.827 358.925 271.479 338.737C342.941 329.346 343.307 293.208 402.898 255.853C438.417 233.59 486.186 220.389 505.437 182.4C522.061 149.611 522.026 111.258 507.848 83.8498C475.959 22.2118 398.956 -29.5836 301.789 41.913C204.622 113.409 70.3443 0.98323 34.7519 155.489Z" fill="#EDFCE9"/>
<path d="M367.192 321.922C405.278 290.591 444.685 257.003 487.263 246.667C531.185 235.997 534.792 250.793 531.947 272.018C529.103 293.242 504.259 338.68 444.565 352.325C384.856 365.974 331.553 351.248 367.192 321.922Z" fill="#EDFCE9"/>
<path fill-rule="evenodd" clip-rule="evenodd" d="M117.537 144.434H148.857V144.424C147.941 148.962 148.246 153.661 149.741 158.042C151.111 162.049 153.462 165.65 156.579 168.516C159.697 171.382 163.482 173.423 167.59 174.452C171.385 175.422 175.352 175.512 179.188 174.715C183.024 173.918 186.627 172.256 189.722 169.855C192.818 167.453 195.324 164.377 197.049 160.86C198.774 157.342 199.673 153.477 199.677 149.56C199.674 147.835 199.501 146.115 199.161 144.424H230.481C233.177 144.424 235.847 144.955 238.339 145.987C240.83 147.019 243.094 148.532 245 150.438C246.907 152.345 248.419 154.609 249.451 157.1C250.483 159.592 251.014 162.262 251.013 164.958V196.279H251.023C246.486 195.363 241.786 195.668 237.406 197.164C233.399 198.534 229.798 200.885 226.932 204.003C224.067 207.12 222.026 210.905 220.997 215.013C220.027 218.809 219.937 222.776 220.734 226.611C221.53 230.447 223.193 234.05 225.594 237.146C227.995 240.241 231.071 242.747 234.588 244.473C238.105 246.199 241.97 247.098 245.888 247.102C247.612 247.1 249.332 246.927 251.023 246.587L251.013 277.898C251.015 289.235 241.827 298.428 230.491 298.432H199.171C199.511 300.123 199.684 301.843 199.686 303.567C199.682 307.485 198.783 311.35 197.058 314.867C195.332 318.384 192.826 321.461 189.731 323.862C186.636 326.263 183.033 327.925 179.197 328.722C175.362 329.519 171.395 329.429 167.599 328.459C163.491 327.43 159.706 325.39 156.589 322.523C153.472 319.657 151.121 316.057 149.751 312.049C148.256 307.669 147.95 302.969 148.866 298.432V298.442H117.547C114.85 298.442 112.18 297.911 109.689 296.879C107.198 295.847 104.934 294.335 103.027 292.428C101.121 290.521 99.6083 288.257 98.5766 285.766C97.545 283.274 97.0142 280.604 97.0146 277.908V246.587C95.3239 246.927 93.6037 247.1 91.879 247.102C87.9614 247.098 84.0964 246.199 80.5792 244.474C77.0619 242.748 73.9854 240.242 71.5842 237.146C69.1831 234.051 67.5209 230.448 66.7245 226.612C65.9281 222.776 66.0185 218.809 66.9889 215.013C68.0207 210.907 70.0621 207.123 72.9278 204.006C75.7934 200.889 79.3924 198.537 83.3978 197.164C87.7782 195.668 92.4774 195.363 97.0146 196.279V164.958C97.0142 162.262 97.545 159.592 98.5766 157.1C99.6083 154.609 101.121 152.345 103.027 150.438C104.934 148.531 107.198 147.019 109.689 145.987C112.18 144.955 114.85 144.424 117.547 144.424" fill="#76BB63"/>
<path fill-rule="evenodd" clip-rule="evenodd" d="M461.936 118.231V149.451H461.946C457.423 148.538 452.739 148.842 448.372 150.333C444.377 151.698 440.788 154.041 437.931 157.149C435.074 160.256 433.04 164.029 432.015 168.124C431.047 171.907 430.957 175.862 431.751 179.685C432.545 183.509 434.202 187.101 436.596 190.186C438.989 193.272 442.056 195.77 445.562 197.49C449.068 199.21 452.921 200.106 456.826 200.11C458.546 200.106 460.26 199.934 461.946 199.596V230.816C461.946 233.504 461.417 236.165 460.388 238.648C459.359 241.132 457.852 243.388 455.951 245.288C454.05 247.189 451.794 248.696 449.311 249.725C446.827 250.753 444.166 251.283 441.478 251.282H410.257V251.292C411.17 246.77 410.865 242.085 409.375 237.719C408.009 233.725 405.665 230.135 402.557 227.279C399.45 224.422 395.676 222.388 391.582 221.362C387.798 220.395 383.844 220.305 380.02 221.099C376.197 221.893 372.605 223.55 369.519 225.944C366.434 228.337 363.936 231.404 362.216 234.91C360.496 238.416 359.599 242.268 359.595 246.173C359.598 247.892 359.769 249.607 360.109 251.292L328.897 251.282C317.596 251.285 308.432 242.126 308.428 230.825V199.605C306.743 199.944 305.028 200.117 303.309 200.12C299.404 200.115 295.552 199.219 292.046 197.499C288.54 195.779 285.474 193.281 283.08 190.195C280.687 187.11 279.03 183.518 278.235 179.695C277.441 175.872 277.53 171.917 278.497 168.134C279.523 164.039 281.557 160.266 284.414 157.159C287.271 154.051 290.86 151.708 294.854 150.343C299.221 148.852 303.905 148.547 308.428 149.46H308.419V118.24C308.419 115.552 308.948 112.891 309.977 110.407C311.005 107.924 312.513 105.667 314.414 103.767C316.314 101.866 318.571 100.359 321.054 99.3301C323.538 98.3016 326.199 97.7725 328.887 97.7728H360.109C359.769 96.0875 359.597 94.3729 359.595 92.6539C359.599 88.7487 360.495 84.896 362.215 81.3899C363.935 77.8838 366.433 74.817 369.519 72.4235C372.605 70.03 376.196 68.3731 380.02 67.5792C383.844 66.7854 387.798 66.8756 391.582 67.8429C395.675 68.8715 399.447 70.9064 402.554 73.7628C405.661 76.6192 408.006 80.2067 409.375 84.1993C410.865 88.5659 411.17 93.25 410.257 97.7728H441.478C446.906 97.7728 452.113 99.929 455.952 103.767C459.79 107.606 461.946 112.812 461.946 118.24" fill="#505050"/>
<path d="M2.29334 333.583C1.13616 331.935 0.317469 281.826 1.45714 279.824C2.60265 277.827 52.7648 263.256 52.7648 263.256C52.7648 263.256 69.7465 235.586 85.7553 220.091C92.0672 213.974 101.294 208.838 103.556 212.275C104.96 214.405 102.732 219.856 99.5814 225.595C99.5742 225.613 99.5647 225.63 99.553 225.646C95.1661 233.628 89.02 242.127 88.4414 242.925C88.4252 242.943 88.4099 242.962 88.3956 242.982C88.3956 242.982 130.006 232.412 136.278 231.275C142.55 230.128 150.734 228.303 152.035 232.538C153.232 236.429 142.635 240.986 142.006 241.255C142.687 241.066 157.086 237.089 159.223 242.512C160.809 246.546 145.918 254.178 145.477 254.397C145.849 254.299 152.945 252.428 153.695 255.802C154.927 261.351 139.48 267.744 138.85 268.008C139.199 267.922 144.938 266.568 145.351 269.673C146.37 277.362 93.2352 298.675 76.998 304.671C60.7434 310.662 3.45636 335.229 2.29334 333.583ZM543.101 50.4485C544.258 52.0851 545.077 101.879 543.937 103.87C542.792 105.854 492.638 120.332 492.638 120.332C492.638 120.332 475.659 147.829 459.653 163.226C453.343 169.306 444.117 174.409 441.855 170.993C440.452 168.878 442.68 163.46 445.829 157.758C445.835 157.74 445.847 157.724 445.858 157.706C450.245 149.774 456.389 141.329 456.968 140.536C457.002 140.496 457.014 140.479 457.014 140.479C457.014 140.479 415.41 150.983 409.139 152.112C402.869 153.253 394.685 155.066 393.386 150.857C392.189 146.991 402.783 142.464 403.413 142.196C402.731 142.384 388.335 146.335 386.199 140.947C384.612 136.938 399.502 129.354 399.943 129.137C399.571 129.234 392.475 131.093 391.725 127.74C390.493 122.225 405.939 115.873 406.568 115.611C406.219 115.697 400.481 117.042 400.068 113.957C399.05 106.316 452.175 85.1364 468.409 79.178C484.662 73.2245 541.939 48.812 543.101 50.4485Z" fill="#F8AE9D"/>
</g>
</g>
<defs>
<clipPath id="clip0_5307_19673">
<rect width="546" height="364.001" fill="white"/>
</clipPath>
</defs>
</svg>
