<svg width="48" height="48" viewBox="0 0 48 48" fill="none" xmlns="http://www.w3.org/2000/svg">
<path d="M19.2082 16.2807C18.4672 16.2807 17.9836 15.5029 18.3114 14.8384L23.5055 4.30749C23.5983 4.11921 23.7901 4 24 4C24.2099 4 24.4017 4.11921 24.4945 4.30749L29.6886 14.8384C30.0164 15.5029 29.5328 16.2807 28.7918 16.2807H19.2082ZM22.2857 42.5941C22.2857 43.0646 21.6951 43.2746 21.398 42.9098L3.89988 21.4209C3.36788 20.7676 3.83278 19.7895 4.67531 19.7895H21.2857C21.838 19.7895 22.2857 20.2372 22.2857 20.7895V42.5941ZM26.602 42.9098C26.3049 43.2746 25.7143 43.0646 25.7143 42.5941V20.7895C25.7143 20.2372 26.162 19.7895 26.7143 19.7895H43.3247C44.1672 19.7895 44.6321 20.7676 44.1001 21.4209L26.602 42.9098ZM34.7984 16.2807C34.415 16.2807 34.0653 16.0614 33.8983 15.7163L28.9233 5.4356C28.6019 4.77153 29.0857 4 29.8234 4H37.2C38.0762 4 38.8663 4.23392 39.5703 4.70175C40.2758 5.16959 40.8381 5.79337 41.2571 6.5731L45.297 14.8417C45.6215 15.506 45.1378 16.2807 44.3985 16.2807H34.7984ZM3.60154 16.2807C2.86217 16.2807 2.37847 15.506 2.70304 14.8417L6.74286 6.5731C7.1619 5.79337 7.72419 5.16959 8.42972 4.70175C9.13372 4.23392 9.92381 4 10.8 4H18.1766C18.9143 4 19.3981 4.77153 19.0767 5.4356L14.1017 15.7163C13.9347 16.0614 13.585 16.2807 13.2016 16.2807H3.60154Z" fill="#4F9C3A"/>
</svg>
