<svg width="48" height="48" viewBox="0 0 48 48" fill="none" xmlns="http://www.w3.org/2000/svg">
<g clip-path="url(#clip0_4723_11223)">
<path d="M38.16 36.936C37.536 35.016 35.736 33.6 33.6 33.6H31.2V26.4C31.2 25.7635 30.9471 25.153 30.4971 24.7029C30.047 24.2529 29.4365 24 28.8 24H14.4V19.2H19.2C19.8365 19.2 20.447 18.9471 20.8971 18.4971C21.3471 18.047 21.6 17.4365 21.6 16.8V12H26.4C27.673 12 28.8939 11.4943 29.7941 10.5941C30.6943 9.69394 31.2 8.47304 31.2 7.2V6.216C34.0715 7.37368 36.6198 9.20994 38.6266 11.5676C40.6335 13.9253 42.0391 16.7341 42.7232 19.7537C43.4074 22.7733 43.3496 25.9137 42.5549 28.9061C41.7602 31.8985 40.2522 34.6537 38.16 36.936ZM21.6 43.032C12.12 41.856 4.8 33.792 4.8 24C4.8 22.512 4.992 21.072 5.304 19.704L16.8 31.2V33.6C16.8 34.873 17.3057 36.0939 18.2059 36.9941C19.1061 37.8943 20.327 38.4 21.6 38.4M24 0C20.8483 0 17.7274 0.620779 14.8156 1.82689C11.9038 3.033 9.25804 4.80083 7.02944 7.02944C2.52856 11.5303 0 17.6348 0 24C0 30.3652 2.52856 36.4697 7.02944 40.9706C9.25804 43.1992 11.9038 44.967 14.8156 46.1731C17.7274 47.3792 20.8483 48 24 48C30.3652 48 36.4697 45.4714 40.9706 40.9706C45.4714 36.4697 48 30.3652 48 24C48 20.8483 47.3792 17.7274 46.1731 14.8156C44.967 11.9038 43.1992 9.25804 40.9706 7.02944C38.742 4.80083 36.0962 3.033 33.1844 1.82689C30.2726 0.620779 27.1517 0 24 0Z" fill="#4F9C3A"/>
<path d="M33.5984 33.6C35.7344 33.6 37.5344 35.016 38.1584 36.936C33.9985 42 27.9985 44 21.5984 43V38.4C20.3254 38.4 19.1045 37.8943 18.2043 36.9941C17.3042 36.0939 16.7984 34.873 16.7984 33.6V31.2L14.3984 28.8184V24H28.7984C29.435 24 30.0454 24.2529 30.4955 24.7029C30.9456 25.153 31.1984 25.7635 31.1984 26.4V33.6H33.5984Z" fill="#505050"/>
</g>
<defs>
<clipPath id="clip0_4723_11223">
<rect width="48" height="48" fill="white"/>
</clipPath>
</defs>
</svg>
