<svg width="48" height="48" viewBox="0 0 48 48" fill="none" xmlns="http://www.w3.org/2000/svg">
<path d="M9.79867 33.5164C6.9526 35.9071 6.00391 43.0033 6.00391 43.0033C6.00391 43.0033 13.1001 42.0546 15.4908 39.2085C16.838 37.6147 16.819 35.1671 15.3201 33.6871C14.5826 32.9832 13.6111 32.5765 12.592 32.5449C11.573 32.5134 10.5783 32.8594 9.79867 33.5164Z" stroke="#4F9C3A" stroke-width="3" stroke-linecap="round" stroke-linejoin="round"/>
<path d="M24.0291 30.6707L18.3359 24.9776C19.3458 22.3577 20.6174 19.8463 22.1314 17.4816C24.3425 13.9462 27.4215 11.0352 31.0753 9.02559C34.7291 7.016 38.8363 5.97461 43.0062 6.00047C43.0062 11.1622 41.526 20.2333 31.6199 26.8753C29.2229 28.391 26.6799 29.6625 24.0291 30.6707Z" stroke="#4F9C3A" stroke-width="3" stroke-linecap="round" stroke-linejoin="round"/>
<path d="M18.344 24.9783H8.85547C8.85547 24.9783 9.89921 19.2282 12.6509 17.3875C15.7252 15.3379 22.1394 17.3875 22.1394 17.3875" stroke="#4F9C3A" stroke-width="3" stroke-linecap="round" stroke-linejoin="round"/>
<path d="M24.0352 30.6704L24.0352 40.159C24.0352 40.159 29.7852 39.1152 31.626 36.3636C33.6755 33.2893 31.626 26.875 31.626 26.875" stroke="#4F9C3A" stroke-width="3" stroke-linecap="round" stroke-linejoin="round"/>
</svg>
