<svg width="48" height="48" viewBox="0 0 48 48" fill="none" xmlns="http://www.w3.org/2000/svg">
<path d="M21.625 32.6349L25.4299 36.4397C25.8046 36.8145 26.2495 37.1118 26.7391 37.3146C27.2288 37.5174 27.7536 37.6218 28.2835 37.6218C28.8135 37.6218 29.3383 37.5174 29.8279 37.3146C30.3176 37.1118 30.7624 36.8145 31.1372 36.4397C31.5119 36.065 31.8092 35.6201 32.012 35.1305C32.2148 34.6408 32.3192 34.1161 32.3192 33.5861C32.3192 33.0561 32.2148 32.5313 32.012 32.0417C31.8092 31.5521 31.5119 31.1072 31.1372 30.7324" stroke="#4F9C3A" stroke-width="3" stroke-linecap="round" stroke-linejoin="round"/>
<path d="M27.3291 26.9278L32.0852 31.6839C32.8421 32.4407 33.8686 32.8659 34.9389 32.8659C36.0092 32.8659 37.0357 32.4407 37.7925 31.6839C38.5494 30.927 38.9746 29.9006 38.9746 28.8302C38.9746 27.7599 38.5494 26.7334 37.7925 25.9766L30.4111 18.5951C29.341 17.5263 27.8904 16.926 26.3779 16.926C24.8655 16.926 23.4149 17.5263 22.3447 18.5951L20.6706 20.2693C19.9138 21.0261 18.8873 21.4513 17.8169 21.4513C16.7466 21.4513 15.7201 21.0261 14.9633 20.2693C14.2064 19.5124 13.7813 18.4859 13.7813 17.4156C13.7812 16.3453 14.2064 15.3188 14.9633 14.5619L20.3091 9.21608C22.0446 7.48514 24.3079 6.3825 26.7406 6.08271C29.1733 5.78293 31.6366 6.30312 33.7403 7.56096L34.6345 8.09364C35.4445 8.58254 36.4077 8.75211 37.336 8.56925L43.4994 7.56096" stroke="#4F9C3A" stroke-width="3" stroke-linecap="round" stroke-linejoin="round"/>
<path d="M43.5 7.9043L43.5 25.9775L38.7439 26.9287M22.5732 33.5872C23.33 34.3441 23.7552 35.3706 23.7552 36.4409C23.7552 37.5112 23.33 38.5377 22.5732 39.2945C21.8163 40.0514 20.7898 40.4766 19.7195 40.4766C18.6492 40.4766 17.6227 40.0514 16.8659 39.2945L4.5 26.9287L4.5 7.9043L21.622 7.9043" stroke="#4F9C3A" stroke-width="3" stroke-linecap="round" stroke-linejoin="round"/>
</svg>
