<svg width="48" height="48" viewBox="0 0 48 48" fill="none" xmlns="http://www.w3.org/2000/svg">
<path d="M6 23.6303C6 33.7756 14.2244 42 24.3697 42C32.7176 42 39.765 36.4316 42 28.8064C39.3078 30.7624 35.9949 31.9161 32.4125 31.9161C23.3945 31.9161 16.084 24.6055 16.084 15.5875C16.084 12.0051 17.2376 8.69223 19.1936 6C11.5684 8.23502 6 15.2824 6 23.6303Z" stroke="#4F9C3A" stroke-width="3" stroke-linejoin="round"/>
<path d="M26.3669 17.3684C21.7741 11.6842 29.6086 8.84211 31.5767 6C33.5451 8.84211 41.3797 11.6842 36.7869 17.3684M26.3669 17.3684H36.7869M26.3669 17.3684V30.6316M36.7869 17.3684V30.6316" stroke="#4F9C3A" stroke-width="3" stroke-linecap="round" stroke-linejoin="round"/>
</svg>
