<svg width="48" height="48" viewBox="0 0 48 48" fill="none" xmlns="http://www.w3.org/2000/svg">
<path d="M38.95 20.7998L38.3 19.2998L36.8 18.6498C36.5333 18.5165 36.4 18.2998 36.4 17.9998C36.4 17.6998 36.5333 17.4831 36.8 17.3498L38.3 16.6998L38.95 15.1998C39.0833 14.9331 39.3 14.7998 39.6 14.7998C39.9 14.7998 40.1167 14.9331 40.25 15.1998L40.9 16.6998L42.4 17.3498C42.6667 17.4831 42.8 17.6998 42.8 17.9998C42.8 18.2998 42.6667 18.5165 42.4 18.6498L40.9 19.2998L40.25 20.7998C40.1167 21.0665 39.9 21.1998 39.6 21.1998C39.3 21.1998 39.0833 21.0665 38.95 20.7998ZM28.7 29.9998L27.1 26.4998L23.6 24.8998C23.2 24.7331 23 24.4331 23 23.9998C23 23.5665 23.2 23.2665 23.6 23.0998L27.1 21.4998L28.7 17.9998C28.8667 17.5998 29.1667 17.3998 29.6 17.3998C30.0333 17.3998 30.3333 17.5998 30.5 17.9998L32.1 21.4998L35.6 23.0998C36 23.2665 36.2 23.5665 36.2 23.9998C36.2 24.4331 36 24.7331 35.6 24.8998L32.1 26.4998L30.5 29.9998C30.3333 30.3998 30.0333 30.5998 29.6 30.5998C29.1667 30.5998 28.8667 30.3998 28.7 29.9998ZM38.95 32.7998L38.3 31.2998L36.8 30.6498C36.5333 30.5165 36.4 30.2998 36.4 29.9998C36.4 29.6998 36.5333 29.4831 36.8 29.3498L38.3 28.6998L38.95 27.1998C39.0833 26.9331 39.3 26.7998 39.6 26.7998C39.9 26.7998 40.1167 26.9331 40.25 27.1998L40.9 28.6998L42.4 29.3498C42.6667 29.4831 42.8 29.6998 42.8 29.9998C42.8 30.2998 42.6667 30.5165 42.4 30.6498L40.9 31.2998L40.25 32.7998C40.1167 33.0665 39.9 33.1998 39.6 33.1998C39.3 33.1998 39.0833 33.0665 38.95 32.7998Z" fill="#4F9C3A"/>
<path fill-rule="evenodd" clip-rule="evenodd" d="M4 7.5C4 5.56701 5.567 4 7.5 4H28.5C30.433 4 32 5.567 32 7.5V13C32 13.5523 31.5523 14 31 14H29C28.4477 14 28 13.5523 28 13V8H8V40H28V35C28 34.4477 28.4477 34 29 34H31C31.5523 34 32 34.4477 32 35V40.5C32 42.433 30.433 44 28.5 44H7.5C5.567 44 4 42.433 4 40.5V7.5Z" fill="#4F9C3A"/>
<path fill-rule="evenodd" clip-rule="evenodd" d="M24 20.0662V12.75C24 12.3358 23.6642 12 23.25 12H12.75C12.3358 12 12 12.3358 12 12.75V35.25C12 35.6642 12.3358 36 12.75 36H23.25C23.6642 36 24 35.6642 24 35.25V27.9338L20 25.7727C19.3333 25.4444 19 24.8535 19 24C19 23.1465 19.3333 22.5556 20 22.2273L24 20.0662Z" fill="#4F9C3A"/>
</svg>
