<svg width="96" height="96" viewBox="0 0 96 96" fill="none" xmlns="http://www.w3.org/2000/svg">
<circle cx="48" cy="48" r="42" fill="#EAFBE5"/>
<path d="M48 9H70.8459C71.3887 9 71.7517 9.55864 71.5313 10.0546L69.2082 15.2816C68.8634 16.0573 68.8634 16.9427 69.2082 17.7184L71.5313 22.9454C71.7517 23.4414 71.3887 24 70.8459 24H48V9Z" fill="#4F9C3A"/>
<rect x="46.5" y="6" width="3" height="43.5" rx="0.75" fill="#505050"/>
<path d="M19.9492 62.6205C21.122 60.7259 23.878 60.7259 25.0508 62.6205L39.1653 85.4209C40.4026 87.4195 38.9651 90 36.6145 90H8.38545C6.03492 90 4.59745 87.4195 5.83466 85.4209L19.9492 62.6205Z" fill="#76BB63"/>
<path d="M70.9492 62.6205C72.122 60.7259 74.878 60.7259 76.0508 62.6205L90.1653 85.4209C91.4026 87.4195 89.9651 90 87.6145 90H59.3855C57.0349 90 55.5974 87.4195 56.8347 85.4209L70.9492 62.6205Z" fill="#76BB63"/>
<path d="M40.7748 42.4612C44.2771 36.6748 52.6715 36.6748 56.1738 42.4611L84.9486 90.0021H12L40.7748 42.4612Z" fill="#505050"/>
<path fill-rule="evenodd" clip-rule="evenodd" d="M54.8828 40.3843C51.9601 35.588 44.9965 35.588 42.0737 40.3843L30.1326 59.9801C32.9159 62.3614 37.2778 65.2326 42.8927 65.2326C44.7656 65.2326 47.9418 63.6571 49.9931 61.9683C50.8943 61.2264 52.6884 61.1819 53.7012 61.7621C56.2959 63.2486 60.267 63.5624 62.2499 62.2501C62.7689 61.9066 63.542 61.4285 64.4564 60.863C65.1016 60.464 65.817 60.0215 66.5632 59.5521L54.8828 40.3843Z" fill="white"/>
<path d="M54.8827 40.3863C51.9599 35.59 44.9963 35.59 42.0736 40.3863L34.8001 52.3222C37.7188 54.5324 40.3795 55.5019 41.9999 55.5019C43.5584 55.5019 47.2499 55.5019 48.7499 52.5019C49.3478 51.3061 50.0372 51.4135 50.8177 52.3369C52.9029 54.8035 55.4999 55.5019 57.7499 54.7519C59.9999 54.0019 60.4592 53.2482 61.5912 51.3951L54.8827 40.3863Z" fill="#76BB63"/>
</svg>
