<svg width="516" height="354" viewBox="0 0 516 354" fill="none" xmlns="http://www.w3.org/2000/svg">
<path d="M246.63 118.725L240.177 121.044C239.598 121.251 238.96 121.221 238.404 120.958C237.847 120.696 237.418 120.224 237.21 119.645C237.001 119.066 237.032 118.429 237.294 117.872C237.556 117.316 238.028 116.887 238.607 116.678L245.06 114.36C245.639 114.152 246.277 114.183 246.834 114.445C247.39 114.708 247.82 115.18 248.028 115.759C248.236 116.337 248.206 116.975 247.944 117.531C247.682 118.087 247.209 118.517 246.63 118.725Z" fill="#4F9C3A"/>
<path d="M386.414 265.625C387.234 262.497 389.204 259.794 391.93 258.053C392.2 257.881 391.918 257.471 391.648 257.643C388.815 259.46 386.771 262.277 385.924 265.534C385.844 265.844 386.334 265.934 386.414 265.625Z" fill="white"/>
<path d="M381.939 146.942C382.435 146.942 382.836 146.541 382.836 146.045C382.836 145.55 382.435 145.148 381.939 145.148C381.443 145.148 381.042 145.55 381.042 146.045C381.042 146.541 381.443 146.942 381.939 146.942Z" fill="white"/>
<path d="M404.697 158.842L404.661 191.56L405.379 191.524L405.982 203.641L404.649 203.705L404.639 210.982L405.705 210.968L405.843 223.093L404.629 223.107L404.514 329.871C404.508 332.667 403.393 335.346 401.413 337.321C399.433 339.296 396.75 340.405 393.953 340.404L275.948 340.278C273.151 340.273 270.47 339.159 268.494 337.18C266.518 335.201 265.408 332.519 265.409 329.723L265.592 158.694C265.598 155.898 266.713 153.219 268.693 151.245C270.673 149.27 273.356 148.161 276.153 148.161L394.158 148.287C396.955 148.294 399.635 149.409 401.611 151.387C403.587 153.366 404.696 156.047 404.697 158.842Z" fill="#505050"/>
<path d="M394.167 333.679L275.747 333.553C274.885 333.551 274.059 333.207 273.45 332.598C272.841 331.988 272.499 331.161 272.499 330.299L272.682 158.133C272.684 157.271 273.028 156.445 273.638 155.837C274.249 155.228 275.076 154.886 275.938 154.886L394.358 155.012C395.22 155.014 396.046 155.358 396.655 155.968C397.264 156.578 397.607 157.404 397.607 158.266L397.423 330.433C397.421 331.294 397.077 332.12 396.467 332.729C395.857 333.337 395.03 333.679 394.167 333.679Z" fill="white"/>
<path d="M384.477 246.26L285.625 246.154C285.316 246.155 285.01 246.095 284.724 245.977C284.438 245.86 284.178 245.686 283.959 245.468C283.74 245.25 283.566 244.99 283.448 244.705C283.33 244.419 283.269 244.113 283.269 243.804C283.269 243.494 283.331 243.188 283.45 242.903C283.569 242.618 283.743 242.359 283.962 242.141C284.182 241.923 284.442 241.75 284.728 241.633C285.014 241.516 285.321 241.456 285.63 241.458L384.482 241.563C384.791 241.562 385.098 241.622 385.384 241.74C385.67 241.858 385.929 242.031 386.148 242.25C386.367 242.468 386.541 242.727 386.659 243.013C386.778 243.299 386.838 243.605 386.838 243.914C386.838 244.223 386.776 244.529 386.657 244.815C386.538 245.1 386.364 245.359 386.145 245.577C385.925 245.795 385.665 245.967 385.379 246.085C385.093 246.202 384.786 246.261 384.477 246.26Z" fill="#ECF6E9"/>
<path d="M351.297 256.824L318.782 256.79C318.474 256.789 318.168 256.728 317.883 256.61C317.598 256.492 317.339 256.319 317.121 256.1C316.903 255.882 316.73 255.623 316.613 255.338C316.495 255.053 316.434 254.747 316.435 254.439C316.435 254.13 316.496 253.825 316.615 253.54C316.733 253.255 316.906 252.997 317.125 252.779C317.343 252.561 317.603 252.388 317.888 252.271C318.173 252.153 318.479 252.093 318.787 252.093L351.302 252.128C351.611 252.128 351.916 252.189 352.201 252.307C352.486 252.426 352.745 252.599 352.963 252.817C353.181 253.036 353.354 253.295 353.472 253.58C353.59 253.865 353.65 254.17 353.65 254.479C353.649 254.787 353.588 255.092 353.47 255.377C353.351 255.662 353.178 255.921 352.96 256.138C352.741 256.356 352.482 256.529 352.197 256.647C351.912 256.764 351.606 256.825 351.297 256.824Z" fill="#ECF6E9"/>
<path d="M351.274 278.327L318.76 278.292C318.136 278.291 317.539 278.043 317.099 277.602C316.659 277.162 316.412 276.564 316.413 275.941C316.413 275.319 316.662 274.722 317.103 274.282C317.544 273.842 318.141 273.595 318.765 273.595L351.279 273.63C351.588 273.63 351.894 273.691 352.178 273.81C352.463 273.928 352.722 274.101 352.94 274.32C353.158 274.538 353.331 274.797 353.449 275.082C353.567 275.367 353.627 275.673 353.627 275.981C353.626 276.289 353.565 276.595 353.447 276.879C353.329 277.164 353.155 277.423 352.937 277.641C352.718 277.859 352.459 278.031 352.174 278.149C351.889 278.267 351.583 278.327 351.274 278.327Z" fill="#ECF6E9"/>
<path d="M351.263 289.34L318.748 289.306C318.439 289.306 318.133 289.246 317.848 289.128C317.562 289.01 317.303 288.837 317.084 288.618C316.865 288.4 316.692 288.141 316.574 287.855C316.456 287.57 316.395 287.264 316.396 286.955C316.396 286.646 316.457 286.34 316.576 286.055C316.695 285.77 316.868 285.511 317.088 285.293C317.307 285.075 317.566 284.903 317.852 284.785C318.138 284.668 318.444 284.608 318.753 284.609L351.268 284.644C351.578 284.643 351.884 284.703 352.17 284.821C352.456 284.939 352.716 285.112 352.935 285.33C353.154 285.548 353.328 285.808 353.446 286.094C353.565 286.379 353.625 286.685 353.625 286.995C353.625 287.304 353.563 287.61 353.444 287.895C353.325 288.181 353.151 288.44 352.932 288.658C352.712 288.876 352.452 289.048 352.166 289.165C351.879 289.282 351.573 289.342 351.263 289.34Z" fill="#ECF6E9"/>
<path d="M369.521 267.445L300.536 267.371C299.914 267.368 299.319 267.119 298.881 266.678C298.443 266.238 298.197 265.642 298.198 265.02C298.198 264.399 298.445 263.804 298.884 263.364C299.324 262.924 299.919 262.676 300.541 262.675L369.526 262.748C369.836 262.747 370.142 262.807 370.428 262.925C370.714 263.043 370.974 263.216 371.193 263.434C371.412 263.653 371.586 263.912 371.704 264.198C371.823 264.484 371.883 264.79 371.883 265.099C371.883 265.408 371.821 265.714 371.702 266C371.583 266.285 371.409 266.544 371.19 266.762C370.97 266.98 370.71 267.152 370.424 267.27C370.137 267.387 369.831 267.446 369.521 267.445Z" fill="#ECF6E9"/>
<path d="M344.463 321.647L332.657 321.634C331.598 321.632 330.583 321.21 329.835 320.46C329.088 319.711 328.669 318.695 328.67 317.637C328.671 316.579 329.092 315.564 329.842 314.816C330.591 314.068 331.606 313.648 332.665 313.648L344.471 313.661C345.531 313.662 346.547 314.083 347.295 314.833C348.044 315.583 348.464 316.599 348.462 317.658C348.461 318.717 348.039 319.732 347.289 320.48C346.539 321.228 345.522 321.648 344.463 321.647Z" fill="#4F9C3A"/>
<path d="M349.123 218.091C359.007 212.236 362.27 199.482 356.411 189.604C350.553 179.726 337.791 176.465 327.907 182.32C318.024 188.175 314.761 200.929 320.619 210.807C326.478 220.685 339.239 223.946 349.123 218.091Z" fill="#4F9C3A"/>
<path d="M300.437 330.647L288.631 330.634C287.572 330.632 286.557 330.21 285.81 329.46C285.062 328.711 284.643 327.695 284.644 326.637C284.645 325.579 285.066 324.564 285.816 323.816C286.565 323.068 287.58 322.648 288.639 322.648L300.445 322.661C301.505 322.662 302.521 323.083 303.269 323.833C304.018 324.583 304.438 325.599 304.437 326.658C304.435 327.717 304.013 328.732 303.263 329.48C302.513 330.228 301.496 330.648 300.437 330.647Z" fill="#4F9C3A"/>
<path d="M19.2563 274.418H300.79V111.522C300.789 110.301 300.303 109.131 299.44 108.268C298.576 107.405 297.405 106.92 296.184 106.918H23.8627C22.6414 106.92 21.4706 107.405 20.6071 108.268C19.7435 109.131 19.2578 110.301 19.2563 111.522V274.418Z" fill="#505050"/>
<path d="M292.092 113.286H27.9546V263.154H292.092V113.286Z" fill="white"/>
<path d="M19.0112 270.01V290.112C19.0112 290.945 19.1754 291.77 19.4945 292.54C19.8136 293.31 20.2813 294.01 20.8709 294.599C21.4605 295.188 22.1604 295.656 22.9308 295.974C23.7011 296.293 24.5268 296.458 25.3606 296.458H129.273V336.129H127.892C127.784 336.128 127.677 336.15 127.577 336.191C127.476 336.233 127.386 336.293 127.309 336.37C127.232 336.446 127.172 336.537 127.13 336.637C127.089 336.737 127.067 336.845 127.067 336.953V339.712C127.067 339.82 127.089 339.927 127.13 340.028C127.172 340.128 127.232 340.218 127.309 340.295C127.386 340.371 127.476 340.432 127.577 340.474C127.677 340.515 127.784 340.536 127.892 340.536H192.399C192.508 340.536 192.615 340.515 192.715 340.474C192.815 340.432 192.906 340.371 192.983 340.295C193.059 340.218 193.12 340.128 193.161 340.028C193.203 339.927 193.224 339.82 193.224 339.712V336.953C193.224 336.845 193.203 336.737 193.161 336.637C193.12 336.537 193.059 336.446 192.983 336.37C192.906 336.293 192.815 336.233 192.715 336.191C192.615 336.15 192.508 336.128 192.399 336.129H191.019V296.458H294.931C295.765 296.458 296.59 296.293 297.361 295.975C298.131 295.656 298.831 295.188 299.421 294.599C300.01 294.01 300.478 293.31 300.797 292.54C301.116 291.77 301.28 290.945 301.28 290.112V270.01L19.0112 270.01Z" fill="#505050"/>
<path d="M253.871 163.407H128.786C127.997 163.407 127.241 163.094 126.683 162.537C126.126 161.98 125.812 161.224 125.812 160.436C125.812 159.648 126.126 158.892 126.683 158.335C127.241 157.777 127.997 157.464 128.786 157.464H253.871C254.659 157.464 255.416 157.777 255.973 158.335C256.531 158.892 256.844 159.648 256.844 160.436C256.844 161.224 256.531 161.98 255.973 162.537C255.416 163.094 254.659 163.407 253.871 163.407Z" fill="#ECF6E9"/>
<path d="M211.901 176.821H170.757C169.968 176.821 169.212 176.508 168.654 175.951C168.096 175.394 167.783 174.638 167.783 173.85C167.783 173.061 168.096 172.306 168.654 171.748C169.212 171.191 169.968 170.878 170.757 170.878H211.901C212.689 170.878 213.445 171.191 214.003 171.748C214.561 172.306 214.874 173.061 214.874 173.85C214.874 174.638 214.561 175.394 214.003 175.951C213.445 176.508 212.689 176.821 211.901 176.821Z" fill="#ECF6E9"/>
<path d="M211.901 204.03H170.757C169.968 204.03 169.212 203.717 168.654 203.16C168.096 202.603 167.783 201.847 167.783 201.059C167.783 200.27 168.096 199.515 168.654 198.957C169.212 198.4 169.968 198.087 170.757 198.087H211.901C212.689 198.087 213.445 198.4 214.003 198.957C214.561 199.515 214.874 200.27 214.874 201.059C214.874 201.847 214.561 202.603 214.003 203.16C213.445 203.717 212.689 204.03 211.901 204.03Z" fill="#ECF6E9"/>
<path d="M211.9 217.966H170.756C170.366 217.966 169.979 217.889 169.619 217.74C169.258 217.59 168.93 217.372 168.654 217.096C168.378 216.82 168.159 216.492 168.01 216.132C167.86 215.771 167.783 215.385 167.783 214.994C167.783 214.604 167.86 214.218 168.01 213.857C168.159 213.497 168.378 213.169 168.654 212.893C168.93 212.617 169.258 212.398 169.619 212.249C169.979 212.1 170.366 212.023 170.756 212.023H211.9C212.291 212.023 212.678 212.1 213.038 212.249C213.399 212.398 213.727 212.617 214.003 212.893C214.279 213.169 214.498 213.497 214.647 213.857C214.797 214.218 214.874 214.604 214.874 214.994C214.874 215.385 214.797 215.771 214.647 216.132C214.498 216.492 214.279 216.82 214.003 217.096C213.727 217.372 213.399 217.59 213.038 217.74C212.678 217.889 212.291 217.966 211.9 217.966Z" fill="#ECF6E9"/>
<path d="M234.975 190.234H147.682C146.893 190.234 146.137 189.921 145.579 189.364C145.022 188.807 144.708 188.051 144.708 187.263C144.708 186.475 145.022 185.719 145.579 185.162C146.137 184.605 146.893 184.292 147.682 184.292H234.975C235.764 184.292 236.52 184.605 237.078 185.162C237.635 185.719 237.949 186.475 237.949 187.263C237.949 188.051 237.635 188.807 237.078 189.364C236.52 189.921 235.764 190.234 234.975 190.234Z" fill="#ECF6E9"/>
<path d="M198.099 249.106H183.16C181.819 249.106 180.533 248.574 179.585 247.626C178.637 246.678 178.104 245.393 178.104 244.053C178.104 242.713 178.637 241.428 179.585 240.48C180.533 239.532 181.819 239 183.16 239H198.099C199.44 239 200.726 239.532 201.674 240.48C202.622 241.428 203.155 242.713 203.155 244.053C203.155 245.393 202.622 246.678 201.674 247.626C200.726 248.574 199.44 249.106 198.099 249.106Z" fill="#4F9C3A"/>
<path d="M89.452 209.825C103.814 209.825 115.457 198.189 115.457 183.836C115.457 169.482 103.814 157.846 89.452 157.846C75.09 157.846 63.4473 169.482 63.4473 183.836C63.4473 198.189 75.09 209.825 89.452 209.825Z" fill="#4F9C3A"/>
<path d="M393.761 341.608H19.7002C19.5181 341.608 19.3436 341.535 19.215 341.406C19.0864 341.277 19.0142 341.103 19.0142 340.921C19.0142 340.739 19.0864 340.564 19.215 340.435C19.3436 340.306 19.5181 340.233 19.7002 340.233H393.761C393.943 340.233 394.118 340.306 394.246 340.435C394.375 340.564 394.447 340.739 394.447 340.921C394.447 341.103 394.375 341.277 394.246 341.406C394.118 341.535 393.943 341.608 393.761 341.608Z" fill="#505050"/>
<path d="M332.937 344.878L333.307 250.592L334.167 250.595L334.235 233.254L333.375 233.25L333.489 204.301C333.493 203.22 333.284 202.149 332.874 201.148C332.464 200.148 331.861 199.238 331.099 198.47C330.337 197.703 329.431 197.093 328.433 196.675C327.435 196.257 326.365 196.04 325.283 196.036L263.978 195.795C262.896 195.791 261.824 196 260.823 196.41C259.822 196.819 258.911 197.422 258.143 198.184C257.375 198.945 256.765 199.85 256.347 200.848C255.929 201.845 255.712 202.915 255.707 203.996L255.628 224.181L254.258 224.206L254.484 236.333L255.58 236.312L255.57 238.988L254.403 239.009L254.628 251.136L255.522 251.119L255.155 344.573C255.149 345.655 255.357 346.727 255.766 347.729C256.175 348.73 256.778 349.641 257.541 350.409C258.303 351.177 259.21 351.787 260.208 352.204C261.207 352.621 262.279 352.837 263.361 352.839L324.666 353.079C326.85 353.085 328.947 352.225 330.498 350.688C332.048 349.151 332.925 347.061 332.937 344.878Z" fill="#505050"/>
<path d="M264.51 346.054C263.748 345.774 263.089 345.267 262.625 344.601C262.161 343.934 261.913 343.141 261.916 342.329L262.474 206.269C262.478 205.222 262.898 204.221 263.641 203.484C264.384 202.747 265.39 202.335 266.437 202.339L276.48 202.39L276.316 202.787C276.032 203.477 275.921 204.226 275.995 204.968C276.068 205.71 276.322 206.423 276.736 207.043C277.15 207.664 277.71 208.173 278.367 208.526C279.024 208.88 279.758 209.066 280.505 209.069L309.453 209.183C310.174 209.124 310.871 208.897 311.488 208.52C312.104 208.142 312.624 207.625 313.004 207.01C313.378 206.405 313.604 205.721 313.663 205.012C313.722 204.304 313.613 203.591 313.344 202.933L313.183 202.534L323.656 202.587C324.703 202.593 325.705 203.013 326.442 203.755C327.179 204.498 327.591 205.502 327.588 206.548L327.056 336.086C327.042 338.861 325.927 341.518 323.955 343.472C321.984 345.427 319.317 346.52 316.54 346.513L265.848 346.29C265.392 346.289 264.939 346.209 264.51 346.054Z" fill="white"/>
<path d="M289.536 258.342C297.634 261.287 306.587 257.114 309.534 249.021C312.481 240.928 308.305 231.98 300.207 229.035C292.109 226.09 283.156 230.263 280.209 238.356C277.263 246.449 281.438 255.397 289.536 258.342Z" fill="#4F9C3A"/>
<path d="M323.446 278.212L266.028 277.987C265.848 277.986 265.671 277.951 265.505 277.882C265.339 277.813 265.189 277.712 265.062 277.584C264.936 277.457 264.836 277.306 264.767 277.14C264.699 276.974 264.665 276.797 264.665 276.617C264.666 276.438 264.702 276.26 264.772 276.095C264.841 275.929 264.942 275.779 265.07 275.653C265.198 275.527 265.349 275.427 265.515 275.359C265.681 275.292 265.859 275.257 266.039 275.259L323.456 275.484C323.818 275.486 324.163 275.632 324.418 275.888C324.672 276.145 324.814 276.492 324.812 276.853C324.811 277.214 324.666 277.56 324.41 277.815C324.154 278.069 323.807 278.212 323.446 278.212Z" fill="#ECF6E9"/>
<path d="M304.155 284.293L285.269 284.219C285.089 284.219 284.912 284.183 284.746 284.114C284.58 284.045 284.43 283.944 284.304 283.817C284.177 283.69 284.077 283.539 284.009 283.373C283.941 283.207 283.906 283.029 283.907 282.85C283.907 282.67 283.943 282.493 284.013 282.328C284.082 282.162 284.184 282.012 284.311 281.886C284.439 281.76 284.59 281.66 284.756 281.592C284.922 281.524 285.1 281.49 285.28 281.491L304.166 281.565C304.528 281.567 304.874 281.712 305.129 281.968C305.384 282.225 305.527 282.573 305.525 282.935C305.524 283.296 305.379 283.643 305.122 283.898C304.865 284.152 304.517 284.295 304.155 284.293Z" fill="#ECF6E9"/>
<path d="M304.107 296.783L285.221 296.709C285.041 296.708 284.864 296.672 284.699 296.603C284.533 296.534 284.383 296.433 284.257 296.306C284.131 296.179 284.031 296.028 283.963 295.862C283.895 295.696 283.86 295.519 283.861 295.34C283.862 295.161 283.898 294.983 283.967 294.818C284.036 294.653 284.137 294.503 284.265 294.377C284.392 294.251 284.543 294.151 284.709 294.083C284.874 294.015 285.052 293.98 285.231 293.981L304.118 294.055C304.48 294.056 304.826 294.202 305.081 294.458C305.336 294.715 305.479 295.063 305.477 295.424C305.476 295.786 305.331 296.133 305.074 296.387C304.817 296.642 304.469 296.785 304.107 296.783Z" fill="#ECF6E9"/>
<path d="M304.082 303.181L285.196 303.107C285.016 303.106 284.839 303.071 284.673 303.002C284.507 302.933 284.357 302.832 284.23 302.704C284.104 302.577 284.003 302.426 283.935 302.26C283.867 302.094 283.832 301.917 283.833 301.737C283.834 301.558 283.87 301.38 283.939 301.215C284.009 301.049 284.11 300.899 284.238 300.773C284.365 300.647 284.517 300.547 284.683 300.479C284.849 300.412 285.027 300.377 285.207 300.379L304.093 300.453C304.272 300.453 304.45 300.489 304.616 300.558C304.782 300.627 304.932 300.728 305.059 300.855C305.185 300.982 305.285 301.133 305.353 301.299C305.422 301.465 305.456 301.643 305.456 301.822C305.455 302.001 305.419 302.179 305.349 302.344C305.28 302.51 305.178 302.66 305.051 302.786C304.923 302.912 304.772 303.012 304.606 303.08C304.44 303.147 304.262 303.182 304.082 303.181Z" fill="#ECF6E9"/>
<path d="M314.724 290.492L274.653 290.335C274.474 290.335 274.296 290.299 274.131 290.23C273.965 290.161 273.814 290.06 273.688 289.933C273.561 289.806 273.461 289.655 273.393 289.489C273.325 289.323 273.29 289.145 273.291 288.966C273.292 288.786 273.328 288.609 273.397 288.443C273.466 288.278 273.568 288.128 273.695 288.002C273.823 287.875 273.974 287.776 274.14 287.708C274.307 287.64 274.485 287.606 274.664 287.607L314.735 287.764C314.914 287.764 315.092 287.8 315.257 287.869C315.423 287.938 315.573 288.039 315.7 288.166C315.827 288.294 315.927 288.444 315.995 288.61C316.063 288.776 316.098 288.954 316.097 289.134C316.096 289.313 316.06 289.49 315.991 289.656C315.921 289.821 315.82 289.971 315.692 290.098C315.565 290.224 315.414 290.324 315.247 290.391C315.081 290.459 314.903 290.493 314.724 290.492Z" fill="#ECF6E9"/>
<path d="M300.437 332.647L288.631 332.635C287.572 332.633 286.558 332.21 285.81 331.461C285.063 330.711 284.643 329.696 284.644 328.637C284.646 327.579 285.067 326.565 285.816 325.817C286.565 325.069 287.581 324.648 288.64 324.648L300.446 324.661C301.505 324.662 302.521 325.084 303.27 325.834C304.018 326.583 304.438 327.599 304.437 328.658C304.436 329.718 304.014 330.733 303.264 331.481C302.514 332.229 301.497 332.649 300.437 332.647Z" fill="#4F9C3A"/>
<path d="M506.424 45H340.769C339.511 45 338.266 45.2475 337.104 45.7285C335.942 46.2094 334.887 46.9144 333.998 47.803C333.108 48.6917 332.403 49.7467 331.922 50.9079C331.441 52.069 331.193 53.3134 331.193 54.5702V94.3874C331.193 95.6442 331.441 96.8887 331.922 98.0499C332.403 99.211 333.108 100.266 333.998 101.155C334.887 102.043 335.942 102.748 337.104 103.229C338.266 103.71 339.511 103.958 340.769 103.958H343.2V111.151C343.2 111.588 343.33 112.015 343.572 112.378C343.815 112.74 344.16 113.023 344.563 113.19C344.967 113.357 345.411 113.401 345.839 113.316C346.268 113.231 346.661 113.021 346.97 112.712L355.729 103.958H506.424C507.682 103.958 508.927 103.71 510.089 103.229C511.25 102.748 512.306 102.043 513.195 101.155C514.084 100.266 514.79 99.211 515.271 98.0499C515.752 96.8887 516 95.6443 516 94.3875V54.5702C516 53.3134 515.752 52.069 515.271 50.9079C514.79 49.7467 514.084 48.6917 513.195 47.803C512.306 46.9144 511.25 46.2094 510.089 45.7285C508.927 45.2475 507.682 45 506.424 45Z" fill="#505050"/>
<path d="M506.425 99.1011H340.77C339.519 99.0997 338.32 98.6026 337.436 97.719C336.552 96.8353 336.055 95.6372 336.053 94.3875V54.57C336.055 53.3203 336.552 52.1222 337.436 51.2386C338.32 50.3549 339.519 49.8578 340.77 49.8564H466.585C478.398 49.8699 489.723 54.5659 498.076 62.9142C506.43 71.2625 511.128 82.5813 511.141 94.3875C511.14 95.6372 510.643 96.8353 509.758 97.719C508.874 98.6026 507.675 99.0997 506.425 99.1011Z" fill="white"/>
<path d="M458.749 58.5654H388.793C387.064 58.5654 385.661 59.967 385.661 61.6959C385.661 63.4249 387.064 64.8264 388.793 64.8264H458.749C460.479 64.8264 461.881 63.4249 461.881 61.6959C461.881 59.967 460.479 58.5654 458.749 58.5654Z" fill="#4F9C3A"/>
<path d="M473.627 71.0874H373.915C372.185 71.0874 370.782 72.489 370.782 74.2179C370.782 75.9468 372.185 77.3484 373.915 77.3484H473.627C475.357 77.3484 476.759 75.9468 476.759 74.2179C476.759 72.489 475.357 71.0874 473.627 71.0874Z" fill="#ECF6E9"/>
<path d="M473.627 83.6094H373.915C372.185 83.6094 370.782 85.011 370.782 86.7399C370.782 88.4688 372.185 89.8704 373.915 89.8704H473.627C475.357 89.8704 476.759 88.4688 476.759 86.7399C476.759 85.011 475.357 83.6094 473.627 83.6094Z" fill="#ECF6E9"/>
<path d="M11.8726 2H217.261C218.82 2 220.364 2.30691 221.804 2.90321C223.245 3.49952 224.554 4.37354 225.656 5.47537C226.759 6.5772 227.633 7.88527 228.23 9.32487C228.827 10.7645 229.134 12.3074 229.134 13.8656V63.2332C229.134 64.7915 228.827 66.3344 228.23 67.774C227.633 69.2136 226.759 70.5217 225.656 71.6235C224.554 72.7254 223.245 73.5994 221.804 74.1957C220.364 74.792 218.82 75.0989 217.261 75.0989H214.246V84.018C214.246 84.5592 214.086 85.0883 213.785 85.5383C213.484 85.9883 213.056 86.339 212.556 86.5461C212.056 86.7532 211.505 86.8074 210.974 86.7018C210.443 86.5962 209.955 86.3356 209.572 85.9529L198.712 75.0989H11.8726C10.3134 75.0989 8.76957 74.792 7.32912 74.1957C5.88867 73.5994 4.57987 72.7254 3.4774 71.6236C2.37493 70.5217 1.50039 69.2137 0.903739 67.7741C0.307089 66.3344 -4.70157e-06 64.7915 0 63.2333V13.8656C-1.17535e-06 12.3074 0.307087 10.7645 0.903739 9.32487C1.50039 7.88527 2.37493 6.5772 3.4774 5.47537C4.57987 4.37354 5.88867 3.49952 7.32912 2.90321C8.76957 2.30691 10.3134 2 11.8726 2Z" fill="#505050"/>
<path d="M217.501 69.3174H61.5093C46.8629 69.3009 32.821 63.4788 22.4643 53.1283C12.1076 42.7778 6.28188 28.7442 6.26514 14.1063C6.26684 12.5568 6.88344 11.0713 7.97969 9.9756C9.07594 8.87991 10.5623 8.26353 12.1127 8.26172H217.501C219.051 8.26344 220.538 8.87971 221.634 9.97533C222.73 11.0709 223.347 12.5564 223.349 14.1059V63.4733C223.347 65.0227 222.73 66.5082 221.634 67.6038C220.538 68.6994 219.051 69.3157 217.501 69.3174Z" fill="white"/>
<path d="M70.9847 26.582L157.719 26.582C159.864 26.582 161.603 24.8443 161.603 22.7007C161.603 20.5571 159.864 18.8193 157.719 18.8193L70.9847 18.8193C68.8398 18.8193 67.1011 20.5571 67.1011 22.7007C67.1011 24.8443 68.8398 26.582 70.9847 26.582Z" fill="#4F9C3A"/>
<path d="M52.5366 42.1074L176.165 42.1074C178.31 42.1074 180.049 40.3697 180.049 38.2261C180.049 36.0824 178.31 34.3447 176.165 34.3447L52.5366 34.3447C50.3917 34.3447 48.653 36.0824 48.653 38.2261C48.653 40.3697 50.3917 42.1074 52.5366 42.1074Z" fill="#ECF6E9"/>
<path d="M52.5366 57.6328L176.165 57.6328C178.31 57.6328 180.049 55.8951 180.049 53.7515C180.049 51.6078 178.31 49.8701 176.165 49.8701L52.5366 49.8701C50.3917 49.8701 48.653 51.6078 48.653 53.7515C48.653 55.8951 50.3917 57.6328 52.5366 57.6328Z" fill="#ECF6E9"/>
</svg>
