<svg width="478" height="409" viewBox="0 0 478 409" fill="none" xmlns="http://www.w3.org/2000/svg">
<path d="M298.288 119.954L296.208 120.269L295.511 122.253C294.232 125.89 292.948 128.872 291.671 131.236L290.644 133.136L291.882 134.905C294.389 138.488 298.169 143.363 303.186 149.499L303.196 149.511L303.206 149.523C303.355 149.702 303.41 149.815 303.427 149.859C303.432 149.871 303.434 149.879 303.436 149.883C303.437 149.887 303.437 149.889 303.438 149.89C303.438 149.893 303.437 149.895 303.437 149.897C303.43 149.908 303.417 149.924 303.398 149.946L303.278 150.079L303.172 150.224C301.477 152.548 298.216 156.132 293.229 161.052C290.773 163.475 288.832 165.203 287.379 166.301C286.65 166.852 286.12 167.187 285.765 167.369C285.748 167.378 285.732 167.386 285.717 167.394C285.602 167.352 285.431 167.276 285.201 167.137L270.97 155.993L269.192 154.6L267.19 155.647C264.312 157.153 261.339 158.395 258.269 159.375L256.121 160.061L255.857 162.301C254.744 171.769 253.759 178.006 252.925 181.216L252.921 181.232L252.917 181.248C252.888 181.362 252.86 181.443 252.838 181.497C252.777 181.506 252.687 181.515 252.562 181.515H229.438C229.297 181.515 229.223 181.496 229.163 181.462L229.148 181.362L226.231 162.183L225.907 160.052L223.858 159.382C220.61 158.321 217.658 157.104 214.992 155.738L213.033 154.734L211.279 156.065L196.592 167.218L196.475 167.307L196.366 167.405C196.36 167.411 196.356 167.414 196.354 167.415C196.353 167.415 196.352 167.416 196.35 167.416C196.343 167.419 196.276 167.442 196.117 167.444C196.093 167.428 196.045 167.392 195.976 167.323L195.914 167.261L195.849 167.202C187.11 159.291 181.647 153.686 179.171 150.266C179.127 150.2 179.083 150.108 179.083 149.889C179.083 149.869 179.085 149.849 179.098 149.813C179.111 149.774 179.149 149.686 179.248 149.549L179.257 149.537L179.265 149.525C180.253 148.141 181.978 145.889 184.475 142.731C186.984 139.557 188.898 137.059 190.195 135.256L191.475 133.478L190.434 131.55C188.666 128.273 187.344 125.068 186.449 121.932L185.829 119.76L183.595 119.431L164.596 116.626C164.516 116.513 164.5 116.441 164.5 116.326V93.1871C164.5 93.1671 164.502 93.147 164.514 93.1115C164.528 93.0719 164.565 92.9838 164.665 92.8475C164.665 92.8469 164.665 92.8463 164.666 92.8457L183.709 89.9772L185.893 89.6482L186.536 87.5347C187.434 84.5832 188.692 81.6045 190.326 78.5975L191.36 76.6923L190.116 74.9173C187.265 70.8533 183.487 65.9809 178.802 60.313L178.794 60.3032C178.71 60.2032 178.654 60.1231 178.617 60.0635C178.666 59.9669 178.743 59.8334 178.86 59.6619C180.487 57.4167 183.715 53.8687 188.719 48.9305C191.193 46.4892 193.147 44.748 194.61 43.6404C195.344 43.0847 195.878 42.7468 196.236 42.5622C196.248 42.5558 196.26 42.5498 196.271 42.544C196.363 42.5874 196.497 42.6644 196.673 42.7993C196.675 42.8004 196.676 42.8015 196.678 42.8026L211.042 53.9471L212.818 55.325L214.81 54.2832C217.688 52.7779 220.661 51.5357 223.731 50.5552L225.879 49.8692L226.143 47.6297C227.256 38.1616 228.241 31.9248 229.075 28.7142L229.079 28.6983L229.083 28.6824C229.112 28.5685 229.14 28.4876 229.162 28.4331C229.223 28.424 229.313 28.4155 229.438 28.4155H252.562C252.703 28.4155 252.777 28.4345 252.837 28.4685L252.852 28.5687L255.769 47.7473L256.093 49.8785L258.142 50.548C261.39 51.6092 264.342 52.8263 267.008 54.1923L268.96 55.1928L270.711 53.8722L285.503 42.7195L285.698 42.5721L285.779 42.4915C285.808 42.4889 285.846 42.4868 285.894 42.4868C285.895 42.487 285.897 42.4875 285.9 42.4883C285.904 42.4897 285.912 42.4922 285.923 42.4967C285.962 42.5122 286.057 42.5572 286.205 42.6735C295.15 50.9338 300.58 56.5797 302.828 59.766L302.91 59.8832C302.914 59.9219 302.917 59.9742 302.917 60.0415C302.917 60.0615 302.915 60.0815 302.902 60.117C302.889 60.1566 302.851 60.2447 302.752 60.381L302.743 60.3931L302.735 60.4053C301.747 61.789 300.022 64.0414 297.525 67.1993C295.016 70.3732 293.102 72.8719 291.805 74.6743L290.547 76.422L291.54 78.3325C293.262 81.6455 294.602 84.8598 295.576 87.9765L296.227 90.0622L298.387 90.3929L317.404 93.3044C317.484 93.4169 317.5 93.4889 317.5 93.604V116.743C317.5 116.763 317.498 116.783 317.486 116.819C317.472 116.857 317.437 116.94 317.347 117.067L298.288 119.954ZM285.495 167.491C285.494 167.491 285.497 167.49 285.503 167.488C285.498 167.49 285.495 167.491 285.495 167.491ZM196.509 42.4387C196.509 42.4388 196.506 42.4398 196.5 42.4415C196.506 42.4395 196.509 42.4386 196.509 42.4387ZM271.167 104.965C271.167 96.6713 268.194 89.4929 262.33 83.6252C256.466 77.7575 249.291 74.782 241 74.782C232.709 74.782 225.534 77.7575 219.67 83.6252C213.806 89.4929 210.833 96.6713 210.833 104.965C210.833 113.259 213.806 120.438 219.67 126.305C225.534 132.173 232.709 135.148 241 135.148C249.291 135.148 256.466 132.173 262.33 126.305C268.194 120.438 271.167 113.259 271.167 104.965Z" fill="white" stroke="#505050" stroke-width="7"/>
<path d="M358.667 40.9256C358.667 37.9794 357.625 35.4639 355.542 33.3793C353.458 31.2947 350.944 30.2523 348 30.2523C345.056 30.2523 342.542 31.2947 340.458 33.3793C338.375 35.4639 337.333 37.9794 337.333 40.9256C337.333 43.8719 338.375 46.3874 340.458 48.472C342.542 50.5566 345.056 51.5989 348 51.5989C350.944 51.5989 353.458 50.5566 355.542 48.472C357.625 46.3874 358.667 43.8719 358.667 40.9256ZM380 36.3811V45.6369C380 45.9704 379.889 46.2901 379.667 46.5958C379.444 46.9016 379.167 47.0822 378.833 47.1378L371.125 48.3052C370.597 49.8061 370.056 51.0708 369.5 52.0992C370.472 53.489 371.958 55.4068 373.958 57.8528C374.236 58.1863 374.375 58.5338 374.375 58.8951C374.375 59.2565 374.25 59.5761 374 59.854C373.25 60.8825 371.875 62.3834 369.875 64.3568C367.875 66.3303 366.569 67.317 365.958 67.317C365.625 67.317 365.264 67.1919 364.875 66.9418L359.125 62.439C357.903 63.0783 356.639 63.6064 355.333 64.0233C354.889 67.8034 354.486 70.3884 354.125 71.7781C353.931 72.5564 353.431 72.9455 352.625 72.9455H343.375C342.986 72.9455 342.646 72.8274 342.354 72.5911C342.062 72.3549 341.903 72.0561 341.875 71.6947L340.708 64.0233C339.347 63.5786 338.097 63.0644 336.958 62.4807L331.083 66.9418C330.806 67.1919 330.458 67.317 330.042 67.317C329.653 67.317 329.306 67.1641 329 66.8584C325.5 63.6898 323.208 61.355 322.125 59.854C321.931 59.5761 321.833 59.2565 321.833 58.8951C321.833 58.5616 321.944 58.2419 322.167 57.9362C322.583 57.3525 323.292 56.4283 324.292 55.1636C325.292 53.899 326.042 52.9192 326.542 52.2243C325.792 50.8346 325.222 49.4587 324.833 48.0967L317.208 46.9711C316.847 46.9155 316.556 46.7417 316.333 46.4499C316.111 46.158 316 45.8315 316 45.4701V36.2144C316 35.8808 316.111 35.5612 316.333 35.2554C316.556 34.9497 316.819 34.769 317.125 34.7134L324.875 33.5461C325.264 32.2675 325.806 30.9889 326.5 29.7103C325.389 28.126 323.903 26.2082 322.042 23.9568C321.764 23.6232 321.625 23.2897 321.625 22.9561C321.625 22.6782 321.75 22.3586 322 21.9972C322.722 20.9966 324.09 19.5026 326.104 17.5153C328.118 15.5279 329.431 14.5343 330.042 14.5343C330.403 14.5343 330.764 14.6732 331.125 14.9512L336.875 19.4123C338.097 18.773 339.361 18.2449 340.667 17.828C341.111 14.0478 341.514 11.4629 341.875 10.0732C342.069 9.29489 342.569 8.90576 343.375 8.90576H352.625C353.014 8.90576 353.354 9.02389 353.646 9.26015C353.938 9.49641 354.097 9.7952 354.125 10.1565L355.292 17.828C356.653 18.2727 357.903 18.7869 359.042 19.3706L364.958 14.9095C365.208 14.6593 365.542 14.5343 365.958 14.5343C366.319 14.5343 366.667 14.6732 367 14.9512C370.583 18.2588 372.875 20.6214 373.875 22.0389C374.069 22.2613 374.167 22.567 374.167 22.9561C374.167 23.2897 374.056 23.6093 373.833 23.9151C373.417 24.4988 372.708 25.423 371.708 26.6876C370.708 27.9523 369.958 28.9321 369.458 29.627C370.181 31.0167 370.75 32.3787 371.167 33.7128L378.792 34.8802C379.153 34.9358 379.444 35.1095 379.667 35.4014C379.889 35.6932 380 36.0198 380 36.3811Z" fill="#4F9C3A"/>
<rect x="49" y="109.892" width="381" height="289" rx="20" fill="white" stroke="#505050" stroke-width="8"/>
<path d="M49 129.892C49 118.846 57.9543 109.892 69 109.892H410C421.046 109.892 430 118.846 430 129.892V159.892H49V129.892Z" fill="#ECF6E9" stroke="#505050" stroke-width="8"/>
<circle cx="83.4821" cy="135.374" r="6.48214" fill="#4F9C3A"/>
<circle cx="104.696" cy="135.374" r="6.48214" fill="#4F9C3A"/>
<circle cx="125.911" cy="135.374" r="6.48214" fill="#4F9C3A"/>
<path d="M286.625 336.062L273 349.686L287.258 363.944" stroke="#505050" stroke-width="6" stroke-linecap="round" stroke-linejoin="round"/>
<path d="M339.234 336.062L352.859 349.686L338.601 363.944" stroke="#505050" stroke-width="6" stroke-linecap="round" stroke-linejoin="round"/>
<path d="M318.906 328.892L308.6 370.117" stroke="#505050" stroke-width="6" stroke-linecap="round" stroke-linejoin="round"/>
<rect x="77" y="182.892" width="118" height="97" rx="16" fill="#505050"/>
<line x1="103" y1="218.037" x2="166" y2="218.037" stroke="white" stroke-width="4"/>
<path d="M164 246.053C164 230.579 151.464 218.035 136 218.035C120.536 218.035 108 230.579 108 246.053" stroke="white" stroke-width="4"/>
<rect x="129" y="211.03" width="14" height="14.0112" fill="#505050" stroke="white" stroke-width="4"/>
<ellipse cx="164" cy="250.055" rx="5" ry="5.0031" fill="white"/>
<ellipse cx="170" cy="218.035" rx="5" ry="5.0031" fill="white"/>
<ellipse cx="108" cy="250.055" rx="5" ry="5.0031" fill="white"/>
<ellipse cx="99" cy="218.035" rx="5" ry="5.0031" fill="white"/>
<path d="M126.054 331.524L84.2169 365.112C83.4804 365.704 83.8985 366.892 84.8429 366.892H191C191.552 366.892 192 366.444 192 365.892V305.308C192 304.417 190.922 303.971 190.293 304.601L146.925 348.007C146.548 348.384 145.942 348.399 145.547 348.042L127.352 331.562C126.988 331.232 126.438 331.216 126.054 331.524Z" fill="#4F9C3A"/>
<rect x="82" y="298.892" width="110" height="71" rx="8" stroke="#4F9C3A" stroke-width="6"/>
<path d="M82 366.892L126.72 330.99L146.252 348.681L192 302.892" stroke="#4F9C3A" stroke-width="6"/>
<circle cx="103" cy="319.892" r="8" fill="#4F9C3A"/>
<rect x="264" y="182.892" width="51" height="6" rx="3" fill="#505050"/>
<rect x="264" y="258.892" width="51" height="6" rx="3" fill="#505050"/>
<rect x="264" y="277.892" width="110" height="6" rx="3" fill="#ECF6E9"/>
<rect x="264" y="296.892" width="110" height="6" rx="3" fill="#ECF6E9"/>
<rect x="282" y="201.892" width="51" height="6" rx="3" fill="#4F9C3A"/>
<rect x="282" y="220.892" width="51" height="6" rx="3" fill="#505050"/>
<rect x="282" y="239.892" width="51" height="6" rx="3" fill="#4F9C3A"/>
</svg>
