<svg width="48" height="48" viewBox="0 0 48 48" fill="none" xmlns="http://www.w3.org/2000/svg">
<path d="M21 41C21 41 18 41 18 38C18 35 21 26 33 26C45 26 48 35 48 38C48 41 45 41 45 41H21ZM14.8571 41C15.2243 41 15.469 40.6152 15.3515 40.2672C15.1058 39.5391 14.9862 38.7723 15 38C15 34.2119 16.7716 30.3195 20.0623 27.4519C20.3678 27.1856 20.2723 26.679 19.8794 26.5795C18.2863 26.176 16.6461 25.9809 15 26C3 26 0 35 0 38C0 41 3 41 3 41H14.8571ZM13.5 23C15.4891 23 17.3968 22.2098 18.8033 20.8033C20.2098 19.3968 21 17.4891 21 15.5C21 13.5109 20.2098 11.6032 18.8033 10.1967C17.3968 8.79018 15.4891 8 13.5 8C11.5109 8 9.60322 8.79018 8.1967 10.1967C6.79018 11.6032 6 13.5109 6 15.5C6 17.4891 6.79018 19.3968 8.1967 20.8033C9.60322 22.2098 11.5109 23 13.5 23Z" fill="#4F9C3A"/>
<path d="M39.364 20.364C37.6761 22.0518 35.3869 23 33 23C30.6131 23 28.3239 22.0518 26.636 20.364C24.9482 18.6761 24 16.3869 24 14C24 11.6131 24.9482 9.32387 26.636 7.63604C28.3239 5.94821 30.6131 5 33 5C35.3869 5 37.6761 5.94821 39.364 7.63604C41.0518 9.32387 42 11.6131 42 14C42 16.3869 41.0518 18.6761 39.364 20.364Z" fill="#505050"/>
</svg>
