<svg width="96" height="96" viewBox="0 0 96 96" fill="none" xmlns="http://www.w3.org/2000/svg">
<circle cx="48" cy="48" r="42" fill="#EAFBE5"/>
<circle cx="48" cy="48" r="34.5" fill="#76BB63" stroke="#505050" stroke-width="3"/>
<path fill-rule="evenodd" clip-rule="evenodd" d="M47.25 13.5C46.8358 13.5 46.5 13.1642 46.5 12.75V6.75C46.5 6.33579 46.8358 6 47.25 6H48.75C49.1642 6 49.5 6.33579 49.5 6.75V12.75C49.5 13.1642 49.1642 13.5 48.75 13.5H47.25Z" fill="#505050"/>
<path fill-rule="evenodd" clip-rule="evenodd" d="M47.25 90C46.8358 90 46.5 89.6642 46.5 89.25V83.25C46.5 82.8358 46.8358 82.5 47.25 82.5H48.75C49.1642 82.5 49.5 82.8358 49.5 83.25V89.25C49.5 89.6642 49.1642 90 48.75 90H47.25Z" fill="#505050"/>
<path fill-rule="evenodd" clip-rule="evenodd" d="M82.5 47.25C82.5 46.8358 82.8358 46.5 83.25 46.5L89.25 46.5C89.6642 46.5 90 46.8358 90 47.25L90 48.75C90 49.1642 89.6642 49.5 89.25 49.5L83.25 49.5C82.8358 49.5 82.5 49.1642 82.5 48.75L82.5 47.25Z" fill="#505050"/>
<path fill-rule="evenodd" clip-rule="evenodd" d="M6 47.25C6 46.8358 6.33579 46.5 6.75 46.5L12.75 46.5C13.1642 46.5 13.5 46.8358 13.5 47.25L13.5 48.75C13.5 49.1642 13.1642 49.5 12.75 49.5L6.75 49.5C6.33579 49.5 6 49.1642 6 48.75L6 47.25Z" fill="#505050"/>
<circle cx="48" cy="48" r="25.5" fill="#505050"/>
<circle cx="47.9987" cy="47.9987" r="17.1667" fill="white" stroke="#505050" stroke-width="3"/>
<circle cx="48.0013" cy="47.9994" r="7.83333" fill="#4F9C3A" stroke="#4F9C3A" stroke-width="3"/>
</svg>
