<svg width="48" height="48" viewBox="0 0 48 48" fill="none" xmlns="http://www.w3.org/2000/svg">
<path d="M21.2001 33H30.0001L29.9998 41C29.9997 41.5523 29.552 42 28.9998 42H21.1997L21.2001 33Z" fill="#4F9C3A"/>
<path d="M10 40C10 39.4477 10.4477 39 11 39H30V41C30 41.5523 29.5523 42 29 42H11C10.4477 42 10 41.5523 10 41V40Z" fill="#4F9C3A"/>
<path d="M33.0005 23.5C33.0005 22.3954 33.8959 21.5 35.0005 21.5H44.0005C45.1051 21.5 46.0005 22.3954 46.0005 23.5V40.4C46.0005 41.5046 45.1051 42.4 44.0005 42.4H35.0005C33.8959 42.4 33.0005 41.5046 33.0005 40.4V23.5Z" fill="#4F9C3A"/>
<path fill-rule="evenodd" clip-rule="evenodd" d="M2.5 8C2.5 6.067 4.067 4.5 6 4.5H42C43.933 4.5 45.5 6.067 45.5 8V16.8333C45.5 17.3856 45.0523 17.8333 44.5 17.8333H43.5C42.9477 17.8333 42.5 17.3856 42.5 16.8333V8C42.5 7.72386 42.2761 7.5 42 7.5H6C5.72386 7.5 5.5 7.72386 5.5 8V30C5.5 30.2761 5.72386 30.5 6 30.5H29C29.5523 30.5 30 30.9477 30 31.5V33.5H6C4.067 33.5 2.5 31.933 2.5 30V8Z" fill="#4F9C3A"/>
<rect x="9" y="11" width="30" height="5" rx="1" fill="#4F9C3A"/>
<rect x="9" y="19" width="21" height="8" rx="1" fill="#4F9C3A"/>
</svg>
